<svg width="73" height="72" viewBox="0 0 73 72" fill="none" xmlns="http://www.w3.org/2000/svg">
<path d="M37.3184 37.0909C43.9458 37.0909 49.3183 31.7183 49.3183 25.0909C49.3183 18.4635 43.9458 13.0909 37.3184 13.0909C30.6909 13.0909 25.3184 18.4635 25.3184 25.0909C25.3184 31.7183 30.6909 37.0909 37.3184 37.0909Z" fill="#82ECC8"/>
<path d="M19.3181 67.0909V61.0909C19.3181 57.9083 20.5824 54.8561 22.8328 52.6056C25.0833 50.3552 28.1355 49.0909 31.3181 49.0909H43.3181C46.5007 49.0909 49.553 50.3552 51.8034 52.6056C54.0538 54.8561 55.3181 57.9083 55.3181 61.0909V67.0909" fill="#82ECC8"/>
<path d="M27.5002 33C34.1277 33 39.5002 27.6274 39.5002 21C39.5002 14.3726 34.1277 9 27.5002 9C20.8728 9 15.5002 14.3726 15.5002 21C15.5002 27.6274 20.8728 33 27.5002 33Z" stroke="#263643" stroke-width="2.75" stroke-linecap="round" stroke-linejoin="round"/>
<path d="M9.5 63V57C9.5 53.8174 10.7643 50.7652 13.0147 48.5147C15.2652 46.2643 18.3174 45 21.5 45H33.5C36.6826 45 39.7348 46.2643 41.9853 48.5147C44.2357 50.7652 45.5 53.8174 45.5 57V63" stroke="#263643" stroke-width="2.75" stroke-linecap="round" stroke-linejoin="round"/>
<path d="M48.5 33L54.5 39L66.5 27" stroke="#263643" stroke-width="2.75" stroke-linecap="round" stroke-linejoin="round"/>
</svg>
