<svg width="25" height="24" viewBox="0 0 25 24" fill="none" xmlns="http://www.w3.org/2000/svg">
<g clip-path="url(#clip0)">
<circle cx="15.75" cy="14" r="9" fill="#B5F0DC"/>
<path d="M12.75 12.9998C13.3023 12.9998 13.75 12.552 13.75 11.9998C13.75 11.4475 13.3023 10.9998 12.75 10.9998C12.1977 10.9998 11.75 11.4475 11.75 11.9998C11.75 12.552 12.1977 12.9998 12.75 12.9998Z" stroke="#263643" stroke-width="1.5" stroke-linecap="round" stroke-linejoin="round"/>
<path d="M12.75 17.0002C15.5114 17.0002 17.75 14.7617 17.75 12.0002C17.75 9.23882 15.5114 7.00024 12.75 7.00024C9.98858 7.00024 7.75 9.23882 7.75 12.0002C7.75 14.7617 9.98858 17.0002 12.75 17.0002Z" stroke="#263643" stroke-width="1.5" stroke-linecap="round" stroke-linejoin="round"/>
<path d="M12.75 21C17.7206 21 21.75 16.9706 21.75 12C21.75 7.02944 17.7206 3 12.75 3C7.77944 3 3.75 7.02944 3.75 12C3.75 16.9706 7.77944 21 12.75 21Z" stroke="#263643" stroke-width="1.5" stroke-linecap="round" stroke-linejoin="round"/>
</g>
<defs>
<clipPath id="clip0">
<rect width="24" height="24" fill="white" transform="translate(0.75)"/>
</clipPath>
</defs>
</svg>
