<svg width="90" height="90" viewBox="0 0 90 90" fill="none" xmlns="http://www.w3.org/2000/svg">
<path fill-rule="evenodd" clip-rule="evenodd" d="M54.1516 46.5758C54.1516 50.2089 51.2056 53.1516 47.5758 53.1516C43.946 53.1516 41 50.2089 41 46.5758C41 42.946 43.946 40 47.5758 40C51.2056 40 54.1516 42.946 54.1516 46.5758Z" fill="#FFC000"/>
<path fill-rule="evenodd" clip-rule="evenodd" d="M62 12.5C62 13.8812 60.88 15 59.5 15C58.12 15 57 13.8812 57 12.5C57 11.12 58.12 10 59.5 10C60.88 10 62 11.12 62 12.5Z" fill="#FFC000"/>
<path fill-rule="evenodd" clip-rule="evenodd" d="M23 78.5C23 79.8812 21.88 81 20.5 81C19.12 81 18 79.8812 18 78.5C18 77.12 19.12 76 20.5 76C21.88 76 23 77.12 23 78.5Z" fill="#FFC000"/>
<path fill-rule="evenodd" clip-rule="evenodd" d="M81 62.5C81 63.8812 79.88 65 78.5 65C77.12 65 76 63.8812 76 62.5C76 61.12 77.12 60 78.5 60C79.88 60 81 61.12 81 62.5Z" fill="white"/>
<path fill-rule="evenodd" clip-rule="evenodd" d="M24 11.5C24 12.8812 22.88 14 21.5 14C20.12 14 19 12.8812 19 11.5C19 10.12 20.12 9 21.5 9C22.88 9 24 10.12 24 11.5Z" fill="#FFC000"/>
<path fill-rule="evenodd" clip-rule="evenodd" d="M59.5911 44.8108C59.5911 65.6955 52.9659 82.6216 44.7955 82.6216C36.6251 82.6216 30 65.6955 30 44.8108C30 23.9261 36.6251 7 44.7955 7C52.9659 7 59.5911 23.9261 59.5911 44.8108V44.8108Z" stroke="black" stroke-width="2"/>
<path fill-rule="evenodd" clip-rule="evenodd" d="M53.6542 56.8471C36.452 68.6802 18.7499 72.8164 14.1173 66.0828C9.48465 59.3525 19.6804 44.3005 36.886 32.4641C54.0915 20.6309 71.7935 16.498 76.4262 23.2284C81.0555 29.9587 70.8598 45.0107 53.6542 56.8471V56.8471Z" stroke="black" stroke-width="2"/>
<path fill-rule="evenodd" clip-rule="evenodd" d="M36.8879 56.8471C54.0902 68.6802 71.7922 72.8164 76.4248 66.0828C81.0575 59.3525 70.8617 44.3005 53.6562 32.4641C36.4506 20.6309 18.7486 16.498 14.1159 23.2284C9.48658 29.9587 19.6823 45.0107 36.8879 56.8471V56.8471Z" stroke="black" stroke-width="2"/>
<path fill-rule="evenodd" clip-rule="evenodd" d="M51.1516 44.5758C51.1516 48.2089 48.2056 51.1516 44.5758 51.1516C40.946 51.1516 38 48.2089 38 44.5758C38 40.946 40.946 38 44.5758 38C48.2056 38 51.1516 40.946 51.1516 44.5758V44.5758Z" stroke="black" stroke-width="2"/>
</svg>
