<svg width="26" height="23" viewBox="0 0 26 23" fill="none" xmlns="http://www.w3.org/2000/svg">
<path fill-rule="evenodd" clip-rule="evenodd" d="M14.8862 21.2702C12.8653 20.4856 7.04219 18.7503 4 18.7503V3C9.78946 3 14.8862 4.49581 14.8862 6.34098C14.8862 4.49581 19.9809 3 25.7723 3V18.7503C25.4398 18.7503 24.7827 18.7656 24.7827 18.7656" fill="#29D398"/>
<path d="M8.91325 18.0801C6.89238 17.2954 4.04219 16.7503 1 16.7503V1C6.78946 1 11.8862 2.49581 11.8862 4.34098C11.8862 2.49581 16.9809 1 22.7723 1V16.7503C22.4398 16.7503 21.7827 16.7656 21.7827 16.7656" stroke="#263643" stroke-linecap="round" stroke-linejoin="round"/>
<path d="M11.8867 4.34137V4.81865" stroke="#263643" stroke-width="0.487456" stroke-linecap="round" stroke-linejoin="round"/>
<path fill-rule="evenodd" clip-rule="evenodd" d="M19.8045 12.4565C19.8045 15.6199 17.1453 18.1839 13.8666 18.1839C10.5879 18.1839 7.92871 15.6199 7.92871 12.4565C7.92871 9.29398 10.5879 6.72906 13.8666 6.72906C17.1453 6.72906 19.8045 9.29398 19.8045 12.4565V12.4565Z" stroke="#263643" stroke-linecap="round" stroke-linejoin="round"/>
<path d="M18.0869 16.5266L23.7616 22.0001" stroke="#263643" stroke-linecap="round" stroke-linejoin="round"/>
</svg>
