<svg width="24" height="24" viewBox="0 0 24 24" fill="none" xmlns="http://www.w3.org/2000/svg">
<path d="M10 4H20V13.4444C20 16.5127 17.5127 19 14.4444 19C11.9898 19 10 17.0102 10 14.5556V4Z" fill="#B5F0DC"/>
<path d="M8.00007 20.9999H16.0001M12 16.9997V20.9997M12 16.9997C13.3261 16.9997 14.5978 16.4732 15.5355 15.5355C16.4731 14.5979 16.9999 13.3261 16.9999 12V4H6.99993V12C6.99993 13.3261 7.52671 14.5979 8.46439 15.5355C9.40207 16.4732 10.6739 16.9997 12 16.9997ZM7 9C7 10.1046 6.10457 11 5 11C3.89543 11 3 10.1046 3 9C3 7.89543 3.89543 7 5 7C6.10457 7 7 7.89543 7 9ZM21.0001 9C21.0001 10.1046 20.1046 11 19.0001 11C17.8955 11 17.0001 10.1046 17.0001 9C17.0001 7.89543 17.8955 7 19.0001 7C20.1046 7 21.0001 7.89543 21.0001 9Z" stroke="#2C3E50" stroke-width="1.5" stroke-linecap="round" stroke-linejoin="round"/>
</svg>
