<svg width="25" height="24" viewBox="0 0 25 24" fill="none" xmlns="http://www.w3.org/2000/svg">
<g clip-path="url(#clip0)">
<path d="M10.15 22.0456C8.68815 20.8836 7.62391 19.2958 7.10478 17.502C6.58564 15.7083 6.63732 13.7974 7.25265 12.0344C7.86797 10.2713 9.01647 8.74327 10.539 7.66206C12.0615 6.58085 13.8826 6 15.75 6C17.6174 6 19.4385 6.58085 20.961 7.66206C22.4835 8.74327 23.632 10.2713 24.2474 12.0344C24.8627 13.7974 24.9144 15.7083 24.3952 17.502C23.8761 19.2958 22.8119 20.8836 21.35 22.0456H10.15Z" fill="#B5F0DC"/>
<path d="M12.75 14.9998C13.8546 14.9998 14.75 14.1043 14.75 12.9998C14.75 11.8952 13.8546 10.9998 12.75 10.9998C11.6454 10.9998 10.75 11.8952 10.75 12.9998C10.75 14.1043 11.6454 14.9998 12.75 14.9998Z" stroke="#263643" stroke-width="1.5" stroke-linecap="round" stroke-linejoin="round"/>
<path d="M14.2 11.5498L16.2499 9.49976" stroke="#263643" stroke-width="1.5" stroke-linecap="round" stroke-linejoin="round"/>
<path d="M7.15 19.9997C5.68815 18.8377 4.62391 17.2499 4.10478 15.4561C3.58564 13.6624 3.63732 11.7515 4.25265 9.98847C4.86797 8.2254 6.01647 6.69737 7.53899 5.61616C9.0615 4.53495 10.8826 3.9541 12.75 3.9541C14.6174 3.9541 16.4385 4.53495 17.961 5.61616C19.4835 6.69737 20.632 8.2254 21.2474 9.98847C21.8627 11.7515 21.9144 13.6624 21.3952 15.4561C20.8761 17.2499 19.8119 18.8377 18.35 19.9997H7.15Z" stroke="#263643" stroke-width="1.5" stroke-linecap="round" stroke-linejoin="round"/>
</g>
<defs>
<clipPath id="clip0">
<rect width="24" height="24" fill="white" transform="translate(0.75)"/>
</clipPath>
</defs>
</svg>
