<svg width="24" height="24" viewBox="0 0 24 24" fill="none" xmlns="http://www.w3.org/2000/svg">
<circle cx="15" cy="14" r="9" fill="#B5F0DC"/>
<path d="M12.5 3C7.26 3 3 7.26 3 12.5C3 17.74 7.26 22 12.5 22C17.74 22 22 17.74 22 12.5C22 7.26 17.74 3 12.5 3ZM12.5 20.8C7.92 20.8 4.2 17.08 4.2 12.5C4.2 7.92 7.92 4.2 12.5 4.2C17.08 4.2 20.8 7.92 20.8 12.5C20.8 17.08 17.08 20.8 12.5 20.8Z" fill="#1E2A36"/>
<path d="M17.0608 9.77981L14.5808 9.49981L13.5608 7.23981C13.3808 6.81981 12.9608 6.55981 12.5008 6.55981C12.0408 6.55981 11.6408 6.81981 11.4408 7.23981L10.4208 9.49981L7.94079 9.77981C7.48079 9.83981 7.10079 10.1398 6.96079 10.5798C6.82079 11.0198 6.94079 11.4798 7.28079 11.7998L9.12079 13.4798L8.62079 15.9198C8.52079 16.3798 8.70079 16.8198 9.08079 17.0998C9.46079 17.3798 9.94079 17.3998 10.3408 17.1598L12.5008 15.8998L14.6608 17.1398C14.8408 17.2398 15.0408 17.2998 15.2408 17.2998C15.4808 17.2998 15.7208 17.2198 15.9208 17.0798C16.3008 16.7998 16.4608 16.3598 16.3808 15.8998L15.8808 13.4598L17.7208 11.7798C18.0608 11.4598 18.1808 10.9998 18.0408 10.5598C17.8808 10.1198 17.5208 9.81981 17.0608 9.77981ZM14.9808 12.6198C14.7208 12.8598 14.6008 13.2398 14.6608 13.5998L15.1608 16.0398L13.0008 14.7998C12.8408 14.7198 12.6608 14.6598 12.4808 14.6598C12.3008 14.6598 12.1208 14.6998 11.9608 14.7998L9.80079 16.0398L10.3008 13.5998C10.3808 13.2398 10.2608 12.8798 9.98079 12.6198L8.14079 10.9398L10.6208 10.6598C10.9808 10.6198 11.3008 10.3798 11.4408 10.0598L12.5008 7.79981L13.5208 10.0798C13.6608 10.4198 13.9808 10.6398 14.3408 10.6798L16.8208 10.9598L14.9808 12.6198Z" fill="#1E2A36"/>
</svg>
