<svg width="33" height="32" viewBox="0 0 33 32" fill="none" xmlns="http://www.w3.org/2000/svg">
<path d="M22.647 22.3142C24.7298 20.2314 24.7298 16.8545 22.647 14.7717C20.5642 12.6889 17.1873 12.6889 15.1045 14.7717C13.0217 16.8545 13.0217 20.2314 15.1045 22.3142C17.1873 24.397 20.5642 24.397 22.647 22.3142Z" fill="#77C8DA"/>
<path d="M27.98 16.9812C30.0628 14.8984 30.0628 11.5215 27.98 9.43872C25.8972 7.35593 22.5203 7.35593 20.4375 9.43872C18.3547 11.5215 18.3547 14.8984 20.4375 16.9812C22.5203 19.064 25.8972 19.064 27.98 16.9812Z" fill="#77C8DA"/>
<path d="M15.98 27.6472C18.0628 25.5644 18.0628 22.1875 15.98 20.1047C13.8972 18.0219 10.5203 18.0219 8.4375 20.1047C6.3547 22.1875 6.3547 25.5644 8.4375 27.6472C10.5203 29.73 13.8972 29.73 15.98 27.6472Z" fill="#77C8DA"/>
<path d="M20.1046 19.7712C22.1874 17.6884 22.1874 14.3116 20.1046 12.2288C18.0218 10.146 14.6449 10.146 12.5621 12.2288C10.4793 14.3116 10.4793 17.6884 12.5621 19.7712C14.6449 21.854 18.0218 21.854 20.1046 19.7712Z" stroke="#263643" stroke-width="1.5" stroke-linecap="round" stroke-linejoin="round"/>
<path d="M12.5626 27.3131C13.0578 26.8178 13.4507 26.2298 13.7187 25.5828C13.9867 24.9357 14.1247 24.2421 14.1247 23.5417C14.1247 22.8413 13.9867 22.1478 13.7187 21.5007C13.4507 20.8536 13.0578 20.2656 12.5626 19.7704C12.0673 19.2751 11.4793 18.8823 10.8323 18.6142C10.1852 18.3462 9.49163 18.2083 8.79123 18.2083C8.09083 18.2083 7.39729 18.3462 6.7502 18.6142C6.10311 18.8823 5.51516 19.2751 5.0199 19.7704" stroke="#263643" stroke-width="1.5" stroke-linecap="round" stroke-linejoin="round"/>
<path d="M20.1039 4.68652C19.6086 5.18178 19.2158 5.76974 18.9477 6.41683C18.6797 7.06391 18.5417 7.75746 18.5417 8.45786C18.5417 9.15826 18.6797 9.8518 18.9477 10.4989C19.2158 11.146 19.6086 11.7339 20.1039 12.2292C20.5991 12.7244 21.1871 13.1173 21.8342 13.3853C22.4813 13.6534 23.1748 13.7913 23.8752 13.7913C24.5756 13.7913 25.2692 13.6534 25.9162 13.3853C26.5633 13.1173 27.1513 12.7244 27.6466 12.2292" stroke="#263643" stroke-width="1.5" stroke-linecap="round" stroke-linejoin="round"/>
</svg>
