<svg width="32" height="32" viewBox="0 0 32 32" fill="none" xmlns="http://www.w3.org/2000/svg">
<path d="M28 21.3333L30 23.4666C30.3395 23.8515 30.5607 24.3261 30.637 24.8336C30.7134 25.3411 30.6417 25.8598 30.4305 26.3276C30.2194 26.7953 29.8778 27.1922 29.4466 27.4706C29.0155 27.749 28.5132 27.8971 28 27.8971C27.4868 27.8971 26.9846 27.749 26.5534 27.4706C26.1223 27.1922 25.7807 26.7953 25.5695 26.3276C25.3584 25.8598 25.2867 25.3411 25.3631 24.8336C25.4394 24.3261 25.6606 23.8515 26 23.4666L28 21.3333Z" fill="#9E9DF1"/>
<path d="M22.6285 8C24.8376 10.2091 24.8376 13.7909 22.6285 16L10.1618 28.4667C9.63137 28.9971 8.91195 29.2951 8.1618 29.2951C7.41166 29.2951 6.69223 28.9971 6.1618 28.4667C5.63137 27.9362 5.33337 27.2168 5.33337 26.4667C5.33337 25.7165 5.63137 24.9971 6.1618 24.4667L22.6285 8Z" fill="#9E9DF1"/>
<path d="M21.3333 5.3335L25.3333 9.3335L8.86664 25.8002C8.3362 26.3306 7.61678 26.6286 6.86664 26.6286C6.11649 26.6286 5.39707 26.3306 4.86664 25.8002C4.3362 25.2697 4.03821 24.5503 4.03821 23.8002C4.03821 23.05 4.3362 22.3306 4.86664 21.8002L21.3333 5.3335" stroke="#263643" stroke-width="1.5" stroke-linecap="round" stroke-linejoin="round"/>
<path d="M13.3333 13.3335H21.3333" stroke="#263643" stroke-width="1.5" stroke-linecap="round" stroke-linejoin="round"/>
<path d="M25.3334 20L27.3334 22.1333C27.6729 22.5182 27.894 22.9929 27.9704 23.5004C28.0468 24.0079 27.9751 24.5266 27.7639 24.9943C27.5528 25.4621 27.2111 25.859 26.78 26.1374C26.3489 26.4158 25.8466 26.5638 25.3334 26.5638C24.8202 26.5638 24.3179 26.4158 23.8868 26.1374C23.4557 25.859 23.1141 25.4621 22.9029 24.9943C22.6918 24.5266 22.6201 24.0079 22.6964 23.5004C22.7728 22.9929 22.994 22.5182 23.3334 22.1333L25.3334 20" stroke="#263643" stroke-width="1.5" stroke-linecap="round" stroke-linejoin="round"/>
</svg>
