<svg width="40" height="52" viewBox="0 0 40 52" fill="none" xmlns="http://www.w3.org/2000/svg">
<path d="M40 20C40 31.0457 20 52 20 52C20 52 0 31.0457 0 20C0 8.9543 8.9543 0 20 0C31.0457 0 40 8.9543 40 20Z" fill="#E5E9EC"/>
<rect x="3" y="3" width="34" height="34" rx="17" fill="#1292EE"/>
<path d="M20.0001 20.4446C20.2456 20.4446 20.4445 20.2456 20.4445 20.0001C20.4445 19.7547 20.2456 19.5557 20.0001 19.5557C19.7546 19.5557 19.5557 19.7547 19.5557 20.0001C19.5557 20.2456 19.7546 20.4446 20.0001 20.4446Z" fill="white" stroke="white" stroke-width="1.5" stroke-linecap="round" stroke-linejoin="round"/>
<path d="M20.0005 26.2229C23.4369 26.2229 26.2226 23.4371 26.2226 20.0006C26.2226 16.5641 23.4369 13.7783 20.0005 13.7783C16.5641 13.7783 13.7783 16.5641 13.7783 20.0006C13.7783 23.4371 16.5641 26.2229 20.0005 26.2229Z" stroke="white" stroke-width="1.5" stroke-linecap="round" stroke-linejoin="round"/>
<path d="M20 12V13.7778" stroke="white" stroke-width="1.5" stroke-linecap="round" stroke-linejoin="round"/>
<path d="M12 20H13.7778" stroke="white" stroke-width="1.5" stroke-linecap="round" stroke-linejoin="round"/>
<path d="M20 26.2227V28.0005" stroke="white" stroke-width="1.5" stroke-linecap="round" stroke-linejoin="round"/>
<path d="M26.2222 20H27.9999" stroke="white" stroke-width="1.5" stroke-linecap="round" stroke-linejoin="round"/>
</svg>
