<svg width="32" height="32" viewBox="0 0 32 32" fill="none" xmlns="http://www.w3.org/2000/svg">
<path d="M5.33301 9.33301H26.6663" stroke="#F92323" stroke-width="2" stroke-linecap="round" stroke-linejoin="round"/>
<path d="M13.333 14.667V22.667" stroke="#F92323" stroke-width="2" stroke-linecap="round" stroke-linejoin="round"/>
<path d="M18.667 14.667V22.667" stroke="#F92323" stroke-width="2" stroke-linecap="round" stroke-linejoin="round"/>
<path d="M6.66699 9.33301L8.00033 25.333C8.00033 26.0403 8.28128 26.7185 8.78137 27.2186C9.28147 27.7187 9.95975 27.9997 10.667 27.9997H21.3337C22.0409 27.9997 22.7192 27.7187 23.2193 27.2186C23.7194 26.7185 24.0003 26.0403 24.0003 25.333L25.3337 9.33301" stroke="#F92323" stroke-width="2" stroke-linecap="round" stroke-linejoin="round"/>
<path d="M12 9.33333V5.33333C12 4.97971 12.1405 4.64057 12.3905 4.39052C12.6406 4.14048 12.9797 4 13.3333 4H18.6667C19.0203 4 19.3594 4.14048 19.6095 4.39052C19.8595 4.64057 20 4.97971 20 5.33333V9.33333" stroke="#F92323" stroke-width="2" stroke-linecap="round" stroke-linejoin="round"/>
</svg>
