<svg width="16" height="14" viewBox="0 0 16 14" fill="none" xmlns="http://www.w3.org/2000/svg">
<path d="M13.5 0.5C14.8807 0.5 16 1.61929 16 3V11C16 12.3807 14.8807 13.5 13.5 13.5H2.5C1.11929 13.5 0 12.3807 0 11V3C0 1.61929 1.11929 0.5 2.5 0.5H13.5ZM15 4.461L8.25351 8.43097C8.12311 8.50767 7.96661 8.52045 7.82751 8.46932L7.74649 8.43097L1 4.463V11C1 11.8284 1.67157 12.5 2.5 12.5H13.5C14.3284 12.5 15 11.8284 15 11V4.461ZM13.5 1.5H2.5C1.67157 1.5 1 2.17157 1 3V3.302L8 7.41991L15 3.301V3C15 2.17157 14.3284 1.5 13.5 1.5Z" fill="#263643"/>
</svg>
