<svg width="18" height="19" viewBox="0 0 18 19" fill="none" xmlns="http://www.w3.org/2000/svg">
<path d="M10.205 3.7778L4.68188 6.56374C4.1763 6.81876 3.85742 7.33675 3.85742 7.903V13.8685C3.85742 14.4347 4.1763 14.9527 4.68188 15.2077L10.205 17.9937C10.6392 18.2127 11.1528 18.2076 11.5826 17.98L16.8041 15.2145C17.295 14.9545 17.602 14.4444 17.602 13.8889V7.88255C17.602 7.32703 17.295 6.81699 16.8041 6.55699L11.5826 3.79151C11.1528 3.56386 10.6392 3.55875 10.205 3.7778Z" fill="#B5F0DC"/>
<path d="M8.27845 1.58496L1 5.22419L8.27845 8.86341L15.5569 5.22419L8.27845 1.58496Z" stroke="#263643" stroke-width="1.5" stroke-linecap="round" stroke-linejoin="round"/>
<path d="M1 8.86329L8.27845 12.5025L15.5569 8.86329" stroke="#263643" stroke-width="1.5" stroke-linecap="round" stroke-linejoin="round"/>
<path d="M1 12.5024L8.27845 16.1416L15.5569 12.5024" stroke="#263643" stroke-width="1.5" stroke-linecap="round" stroke-linejoin="round"/>
</svg>
