<svg width="12" height="11" viewBox="0 0 12 11" fill="none" xmlns="http://www.w3.org/2000/svg">
<path d="M1.66674 0.833328H10.3334C10.4294 0.867001 10.5164 0.922202 10.5878 0.994704C10.6592 1.06721 10.7131 1.15509 10.7452 1.25161C10.7774 1.34813 10.7871 1.45074 10.7735 1.55157C10.7598 1.6524 10.7233 1.74878 10.6667 1.83333L7.3334 5.5V10.1667L4.66674 8.16666V5.5L1.3334 1.83333C1.2768 1.74878 1.2403 1.6524 1.22669 1.55157C1.21309 1.45074 1.22274 1.34813 1.25491 1.25161C1.28709 1.15509 1.34093 1.06721 1.41231 0.994704C1.4837 0.922202 1.57073 0.867001 1.66674 0.833328Z" stroke="#2C3E50" stroke-width="1.5" stroke-linecap="round" stroke-linejoin="round"/>
</svg>
