<svg width="38" height="38" viewBox="0 0 38 38" fill="none" xmlns="http://www.w3.org/2000/svg">
<path d="M21 37C29.8366 37 37 29.8366 37 21C37 12.1634 29.8366 5 21 5C12.1634 5 5 12.1634 5 21C5 29.8366 12.1634 37 21 37Z" fill="#FBD13A"/>
<path d="M19 35C27.8366 35 35 27.8366 35 19C35 10.1634 27.8366 3 19 3C10.1634 3 3 10.1634 3 19C3 27.8366 10.1634 35 19 35Z" stroke="#263643" stroke-linecap="round" stroke-linejoin="round"/>
<path d="M11.1665 11.2085H13.2498" stroke="#263643" stroke-linecap="round" stroke-linejoin="round"/>
<path d="M12.2085 10.1665V12.2498" stroke="#263643" stroke-linecap="round" stroke-linejoin="round"/>
<path d="M18.9793 10.1665L18.4585 12.2498" stroke="#263643" stroke-linecap="round" stroke-linejoin="round"/>
<path d="M25.75 11.2085H27.8333" stroke="#263643" stroke-linecap="round" stroke-linejoin="round"/>
<path d="M26.7915 10.1665V12.2498" stroke="#263643" stroke-linecap="round" stroke-linejoin="round"/>
<path d="M22.6252 15.375L21.5835 16.4167" stroke="#263643" stroke-linecap="round" stroke-linejoin="round"/>
<path d="M25.75 19.5418L27.8333 19.021" stroke="#263643" stroke-linecap="round" stroke-linejoin="round"/>
<path d="M25.75 25.7915H27.8333" stroke="#263643" stroke-linecap="round" stroke-linejoin="round"/>
<path d="M26.7915 24.75V26.8333" stroke="#263643" stroke-linecap="round" stroke-linejoin="round"/>
<path d="M21.5834 23.2061L14.7938 16.4165L10.2209 26.3957C10.1324 26.5894 10.1052 26.8056 10.1431 27.0152C10.1809 27.2248 10.2819 27.4178 10.4325 27.5684C10.5831 27.719 10.7761 27.82 10.9857 27.8578C11.1953 27.8957 11.4115 27.8685 11.6052 27.78L21.5834 23.2071V23.2061Z" stroke="#263643" stroke-linecap="round" stroke-linejoin="round"/>
</svg>
