<svg width="24" height="23" viewBox="0 0 24 23" fill="none" xmlns="http://www.w3.org/2000/svg">
<path d="M8.07154 1.0238H2.83345C2.11022 1.0238 1.52393 1.6101 1.52393 2.33333V7.57142C1.52393 8.29465 2.11022 8.88094 2.83345 8.88094H8.07154C8.79477 8.88094 9.38107 8.29465 9.38107 7.57142V2.33333C9.38107 1.6101 8.79477 1.0238 8.07154 1.0238Z" stroke="#FAFAFA" stroke-width="2" stroke-linecap="round" stroke-linejoin="round"/>
<path d="M21.1668 1.0238H15.9287C15.2055 1.0238 14.6192 1.6101 14.6192 2.33333V7.57142C14.6192 8.29465 15.2055 8.88094 15.9287 8.88094H21.1668C21.89 8.88094 22.4763 8.29465 22.4763 7.57142V2.33333C22.4763 1.6101 21.89 1.0238 21.1668 1.0238Z" stroke="#FAFAFA" stroke-width="2" stroke-linecap="round" stroke-linejoin="round"/>
<path d="M8.07154 14.119H2.83345C2.11022 14.119 1.52393 14.7053 1.52393 15.4286V20.6667C1.52393 21.3899 2.11022 21.9762 2.83345 21.9762H8.07154C8.79477 21.9762 9.38107 21.3899 9.38107 20.6667V15.4286C9.38107 14.7053 8.79477 14.119 8.07154 14.119Z" stroke="#FAFAFA" stroke-width="2" stroke-linecap="round" stroke-linejoin="round"/>
<path d="M21.1668 14.119H15.9287C15.2055 14.119 14.6192 14.7053 14.6192 15.4286V20.6667C14.6192 21.3899 15.2055 21.9762 15.9287 21.9762H21.1668C21.89 21.9762 22.4763 21.3899 22.4763 20.6667V15.4286C22.4763 14.7053 21.89 14.119 21.1668 14.119Z" stroke="#FAFAFA" stroke-width="2" stroke-linecap="round" stroke-linejoin="round"/>
</svg>
