<svg width="24" height="16" viewBox="0 0 24 16" fill="none" xmlns="http://www.w3.org/2000/svg">
<path d="M15.8525 5.7537L21.4879 3.04889C21.6766 2.95838 21.8862 2.91565 22.0969 2.92476C22.3076 2.93387 22.5124 2.99452 22.6918 3.10095C22.8712 3.20738 23.0193 3.35607 23.1221 3.53289C23.2248 3.70972 23.2788 3.90883 23.279 4.11133V12.1497C23.2788 12.3522 23.2248 12.5513 23.1221 12.7281C23.0193 12.905 22.8712 13.0536 22.6918 13.1601C22.5124 13.2665 22.3076 13.3272 22.0969 13.3363C21.8862 13.3454 21.6766 13.3026 21.4879 13.2121L15.8525 10.5073V5.7537Z" stroke="#748494" stroke-linecap="round" stroke-linejoin="round"/>
<path d="M13.3774 1H3.47547C2.10831 1 1 2.06413 1 3.37681V12.8841C1 14.1967 2.10831 15.2609 3.47547 15.2609H13.3774C14.7445 15.2609 15.8528 14.1967 15.8528 12.8841V3.37681C15.8528 2.06413 14.7445 1 13.3774 1Z" stroke="#748494" stroke-linecap="round" stroke-linejoin="round"/>
</svg>
