<svg width="101" height="71" viewBox="0 0 101 71" fill="none" xmlns="http://www.w3.org/2000/svg">
<path d="M70.25 30.0002L93.5841 18.3357C94.3653 17.9453 95.2332 17.7611 96.1056 17.8004C96.978 17.8396 97.8258 18.1012 98.5687 18.5602C99.3116 19.0192 99.9249 19.6604 100.35 20.4229C100.776 21.1855 101 22.0442 101 22.9174V57.5829C101 58.4562 100.776 59.3148 100.35 60.0774C99.9249 60.84 99.3116 61.4812 98.5687 61.9402C97.8258 62.3992 96.978 62.6607 96.1056 62.7C95.2332 62.7393 94.3653 62.555 93.5841 62.1647L70.25 50.5002V30.0002Z" fill="#5BB2F9"/>
<path d="M60 9.5H19C13.3391 9.5 8.75 14.0891 8.75 19.75V60.75C8.75 66.4109 13.3391 71 19 71H60C65.6609 71 70.25 66.4109 70.25 60.75V19.75C70.25 14.0891 65.6609 9.5 60 9.5Z" fill="#5BB2F9"/>
<path d="M63.125 22.5002L86.4591 10.8357C87.2403 10.4453 88.1082 10.2611 88.9806 10.3004C89.853 10.3396 90.7008 10.6012 91.4437 11.0602C92.1866 11.5192 92.7999 12.1604 93.2254 12.9229C93.6509 13.6855 93.8745 14.5442 93.875 15.4174V50.0829C93.8745 50.9562 93.6509 51.8148 93.2254 52.5774C92.7999 53.34 92.1866 53.9812 91.4437 54.4402C90.7008 54.8992 89.853 55.1607 88.9806 55.2C88.1082 55.2393 87.2403 55.055 86.4591 54.6647L63.125 43.0002V22.5002Z" stroke="#263643" stroke-width="3" stroke-linecap="round" stroke-linejoin="round"/>
<path d="M52.875 2H11.875C6.21408 2 1.625 6.58908 1.625 12.25V53.25C1.625 58.9109 6.21408 63.5 11.875 63.5H52.875C58.5359 63.5 63.125 58.9109 63.125 53.25V12.25C63.125 6.58908 58.5359 2 52.875 2Z" stroke="#263643" stroke-width="3" stroke-linecap="round" stroke-linejoin="round"/>
</svg>
