<svg width="25" height="17" viewBox="0 0 25 17" fill="none" xmlns="http://www.w3.org/2000/svg">
<path d="M17.5737 7.49275L23.2091 4.78793C23.3978 4.69742 23.6074 4.65469 23.8181 4.6638C24.0288 4.67291 24.2336 4.73356 24.413 4.83999C24.5924 4.94643 24.7405 5.09511 24.8433 5.27194C24.946 5.44877 25 5.64788 25.0001 5.85037V13.8887C25 14.0912 24.946 14.2903 24.8433 14.4672C24.7405 14.644 24.5924 14.7927 24.413 14.8991C24.2336 15.0056 24.0288 15.0662 23.8181 15.0753C23.6074 15.0844 23.3978 15.0417 23.2091 14.9512L17.5737 12.2464V7.49275Z" fill="#5BB2F9"/>
<path d="M15.0981 2.7392H5.19617C3.82901 2.7392 2.7207 3.80333 2.7207 5.11601V14.6233C2.7207 15.9359 3.82901 17.0001 5.19617 17.0001H15.0981C16.4652 17.0001 17.5735 15.9359 17.5735 14.6233V5.11601C17.5735 3.80333 16.4652 2.7392 15.0981 2.7392Z" fill="#5BB2F9"/>
<path d="M15.853 5.75379L21.4884 3.04898C21.6771 2.95847 21.8867 2.91574 22.0974 2.92485C22.3081 2.93396 22.5128 2.99461 22.6923 3.10104C22.8717 3.20747 23.0198 3.35616 23.1226 3.53299C23.2253 3.70981 23.2793 3.90892 23.2794 4.11142V12.1498C23.2793 12.3523 23.2253 12.5514 23.1226 12.7282C23.0198 12.9051 22.8717 13.0537 22.6923 13.1602C22.5128 13.2666 22.3081 13.3272 22.0974 13.3364C21.8867 13.3455 21.6771 13.3027 21.4884 13.2122L15.853 10.5074V5.75379Z" stroke="#263643" stroke-linecap="round" stroke-linejoin="round"/>
<path d="M13.3774 1.00012H3.47547C2.10831 1.00012 1 2.06426 1 3.37693V12.8842C1 14.1969 2.10831 15.261 3.47547 15.261H13.3774C14.7445 15.261 15.8528 14.1969 15.8528 12.8842V3.37693C15.8528 2.06426 14.7445 1.00012 13.3774 1.00012Z" stroke="#263643" stroke-linecap="round" stroke-linejoin="round"/>
</svg>
