<svg width="220" height="37" viewBox="0 0 220 37" fill="none" xmlns="http://www.w3.org/2000/svg">
<g clip-path="url(#clip0)">
<path d="M18.8764 4.70265L19.579 11.0176C19.6324 11.5709 19.5391 12.1285 19.3085 12.6343C19.0778 13.1401 18.718 13.5761 18.2652 13.8986L16.0951 15.4451L14.7897 2.9067C14.744 2.44318 14.8217 1.97582 15.015 1.55204C15.2082 1.12827 15.5102 0.76317 15.8902 0.493808C16.2701 0.224447 16.7146 0.0604122 17.1785 0.018354C17.6423 -0.0237041 18.1091 0.0577119 18.5313 0.254338L28.5338 4.82737L26.4551 6.29074C25.9635 6.64203 25.3879 6.85738 24.7864 6.91504C24.185 6.97271 23.5789 6.87065 23.0295 6.61917L18.8764 4.70265Z" fill="#368ACA"/>
<path style="mix-blend-mode:darken" d="M18.9803 4.76081L18.8763 4.70261L19.5789 11.0176C19.6323 11.5709 19.539 12.1285 19.3084 12.6342C19.0778 13.14 18.718 13.5761 18.2652 13.8986L16.0951 15.4451L15.3177 7.3716C15.2746 6.91797 15.3516 6.461 15.5408 6.04651C15.7301 5.63202 16.0251 5.2746 16.3962 5.01011C16.7672 4.74562 17.2013 4.58335 17.6548 4.5396C18.1084 4.49584 18.5655 4.57213 18.9803 4.76081Z" fill="url(#paint0_linear)"/>
<path d="M18.5064 20.8371C19.4868 20.8371 20.2815 20.0424 20.2815 19.062C20.2815 18.0816 19.4868 17.2868 18.5064 17.2868C17.526 17.2868 16.7312 18.0816 16.7312 19.062C16.7312 20.0424 17.526 20.8371 18.5064 20.8371Z" fill="#ED1C24"/>
<path d="M18.8472 4.71094L19.5373 11.03C19.5879 11.5831 19.4919 12.1398 19.2591 12.6441C19.0263 13.1484 18.6649 13.5825 18.2111 13.9027L16.0286 15.4451L14.7814 2.88173C14.7388 2.41955 14.8189 1.95433 15.0135 1.53298C15.2081 1.11162 15.5104 0.749015 15.8898 0.481724C16.2693 0.214433 16.7125 0.0519021 17.1748 0.0105166C17.637 -0.0308688 18.1021 0.0503545 18.5229 0.245998L28.5005 4.85229L26.4218 6.30735C25.9282 6.6566 25.3514 6.86968 24.7493 6.92514C24.1472 6.98061 23.5411 6.8765 22.992 6.6233L18.8472 4.71094Z" fill="#368ACA"/>
<path d="M18.9512 4.77332L18.8472 4.71096L19.5374 11.0301C19.5879 11.5832 19.492 12.1398 19.2592 12.6441C19.0264 13.1484 18.6649 13.5825 18.2112 13.9028L16.0286 15.4451L15.2761 7.36748C15.2337 6.9132 15.3119 6.45577 15.5027 6.04135C15.6935 5.62692 15.9903 5.27015 16.363 5.00704C16.7358 4.74393 17.1713 4.58378 17.6257 4.54274C18.0801 4.50171 18.5373 4.58124 18.9512 4.77332Z" fill="url(#paint1_linear)"/>
<path d="M18.9512 4.77332L18.8472 4.71096L19.5374 11.0301C19.5879 11.5832 19.492 12.1398 19.2592 12.6441C19.0264 13.1484 18.6649 13.5825 18.2112 13.9028L16.0286 15.4451L15.2761 7.36748C15.2337 6.9132 15.3119 6.45577 15.5027 6.04135C15.6935 5.62692 15.9903 5.27015 16.363 5.00704C16.7358 4.74393 17.1713 4.58378 17.6257 4.54274C18.0801 4.50171 18.5373 4.58124 18.9512 4.77332Z" fill="url(#paint2_linear)"/>
<path d="M5.06159 13.7947L11.2643 15.1583C11.8058 15.2864 12.3041 15.5548 12.7091 15.9365C13.114 16.3181 13.4115 16.7996 13.5716 17.3325L14.3365 19.8893L2.03092 17.0831C1.58033 16.9763 1.16577 16.7528 0.828852 16.4351C0.491931 16.1174 0.244502 15.7167 0.1114 15.2732C-0.0217018 14.8297 -0.035793 14.3589 0.0705407 13.9082C0.176874 13.4575 0.399892 13.0427 0.717208 12.7054L8.2544 4.70264L8.98193 7.12219C9.15598 7.70089 9.17462 8.31523 9.03596 8.90342C8.8973 9.49161 8.60624 10.0329 8.19204 10.473L5.06159 13.7947Z" fill="#F16667"/>
<path d="M5.15305 13.7156L5.06158 13.7946L11.2643 15.1582C11.8058 15.2864 12.3041 15.5548 12.7091 15.9364C13.114 16.3181 13.4115 16.7995 13.5716 17.3325L14.3365 19.8892L6.43765 18.0268C5.99439 17.9207 5.58681 17.7 5.25582 17.3867C4.92483 17.0734 4.68207 16.6785 4.55192 16.2417C4.42177 15.8049 4.4088 15.3416 4.51431 14.8982C4.61982 14.4548 4.8401 14.047 5.15305 13.7156Z" fill="url(#paint3_linear)"/>
<path d="M5.15305 13.7156L5.06158 13.7946L11.2643 15.1582C11.8058 15.2864 12.3041 15.5548 12.7091 15.9364C13.114 16.3181 13.4115 16.7995 13.5716 17.3325L14.3365 19.8892L6.43765 18.0268C5.99439 17.9207 5.58681 17.7 5.25582 17.3867C4.92483 17.0734 4.68207 16.6785 4.55192 16.2417C4.42177 15.8049 4.4088 15.3416 4.51431 14.8982C4.61982 14.4548 4.8401 14.047 5.15305 13.7156Z" fill="url(#paint4_linear)"/>
<path d="M32.0424 14.6427L26.3095 17.3782C25.8035 17.6094 25.2456 17.7035 24.6918 17.6509C24.1379 17.5984 23.6076 17.4011 23.1541 17.0789L20.9799 15.5365L32.4249 10.1902C32.8468 9.99386 33.3131 9.91249 33.7766 9.95438C34.24 9.99627 34.6842 10.1599 35.064 10.4288C35.4439 10.6976 35.7459 11.0621 35.9395 11.4853C36.1331 11.9084 36.2114 12.3753 36.1665 12.8384L35.1064 23.7805L33.0277 22.3171C32.5348 21.9672 32.1428 21.4936 31.891 20.9441C31.6393 20.3946 31.5366 19.7884 31.5935 19.1866L32.0424 14.6427Z" fill="#48BC94"/>
<path d="M32.0092 14.7591L32.0341 14.6427L26.3095 17.3782C25.8035 17.6094 25.2456 17.7035 24.6918 17.6509C24.1379 17.5984 23.6076 17.4011 23.1541 17.0789L20.9799 15.5365L28.3549 12.1567C28.7685 11.9677 29.2245 11.8911 29.6771 11.9343C30.1298 11.9775 30.563 12.1391 30.9334 12.4029C31.3038 12.6666 31.5982 13.0232 31.787 13.4369C31.9758 13.8505 32.0525 14.3065 32.0092 14.7591Z" fill="url(#paint5_linear)"/>
<path d="M32.0092 14.7591L32.0341 14.6427L26.3095 17.3782C25.8035 17.6094 25.2456 17.7035 24.6918 17.6509C24.1379 17.5984 23.6076 17.4011 23.1541 17.0789L20.9799 15.5365L28.3549 12.1567C28.7685 11.9677 29.2245 11.8911 29.6771 11.9343C30.1298 11.9775 30.563 12.1391 30.9334 12.4029C31.3038 12.6666 31.5982 13.0232 31.787 13.4369C31.9758 13.8505 32.0525 14.3065 32.0092 14.7591Z" fill="url(#paint6_linear)"/>
<path d="M9.21471 29.9291L12.5406 24.5246C12.8396 24.0558 13.2567 23.6738 13.7499 23.4169C14.2432 23.1601 14.7953 23.0374 15.3509 23.0613L18.0157 23.1777L11.3225 33.8869C11.0746 34.28 10.7272 34.6006 10.3155 34.8161C9.90373 35.0317 9.44233 35.1346 8.97803 35.1143C8.51373 35.094 8.06305 34.9514 7.67167 34.7008C7.28028 34.4502 6.96212 34.1005 6.74943 33.6873L1.66089 23.9385L4.18437 24.0465C4.78908 24.0726 5.37631 24.2572 5.8871 24.582C6.39789 24.9067 6.81429 25.36 7.09448 25.8965L9.21471 29.9291Z" fill="#92278F"/>
<path d="M9.17322 29.8335L9.21479 29.9458L12.5406 24.5413C12.8397 24.0724 13.2567 23.6904 13.75 23.4336C14.2433 23.1767 14.7954 23.0541 15.351 23.0779L18.0158 23.1943L13.6673 30.0289C13.423 30.4142 13.0814 30.7283 12.6769 30.9394C12.2725 31.1506 11.8195 31.2513 11.3637 31.2315C10.9079 31.2117 10.4654 31.072 10.0808 30.8266C9.69622 30.5811 9.38316 30.2386 9.17322 29.8335Z" fill="url(#paint7_linear)"/>
<path d="M9.17322 29.8335L9.21479 29.9458L12.5406 24.5413C12.8397 24.0724 13.2567 23.6904 13.75 23.4336C14.2433 23.1767 14.7954 23.0541 15.351 23.0779L18.0158 23.1943L13.6673 30.0289C13.423 30.4142 13.0814 30.7283 12.6769 30.9394C12.2725 31.1506 11.8195 31.2513 11.3637 31.2315C10.9079 31.2117 10.4654 31.072 10.0808 30.8266C9.69622 30.5811 9.38316 30.2386 9.17322 29.8335Z" fill="url(#paint8_linear)"/>
<path d="M26.7253 31.1763L22.3726 26.5368C21.9986 26.1258 21.7395 25.6235 21.6212 25.0806C21.503 24.5376 21.5299 23.973 21.6991 23.4437L22.5098 20.8995L31.078 30.1661C31.3901 30.5087 31.6065 30.9275 31.7055 31.3802C31.8044 31.833 31.7824 32.3039 31.6417 32.7454C31.5009 33.187 31.2464 33.5837 30.9038 33.8958C30.5611 34.2078 30.1423 34.4241 29.6895 34.523L18.9512 36.8677L19.7161 34.4606C19.9007 33.8847 20.2332 33.3674 20.6804 32.9603C21.1276 32.5532 21.6739 32.2706 22.2645 32.1408L26.7253 31.1763Z" fill="#FBD13A"/>
<path d="M26.6048 31.1763H26.7254L22.3727 26.5368C21.9987 26.1258 21.7395 25.6235 21.6213 25.0806C21.503 24.5376 21.5299 23.973 21.6992 23.4437L22.5099 20.8995L27.9726 26.8985C28.2784 27.2354 28.4901 27.6469 28.5867 28.0916C28.6832 28.5362 28.6611 28.9985 28.5225 29.4319C28.3839 29.8653 28.1338 30.2546 27.7972 30.5608C27.4606 30.867 27.0494 31.0793 26.6048 31.1763Z" fill="url(#paint9_linear)"/>
<path d="M26.6048 31.1763H26.7254L22.3727 26.5368C21.9987 26.1258 21.7395 25.6235 21.6213 25.0806C21.503 24.5376 21.5299 23.973 21.6992 23.4437L22.5099 20.8995L27.9726 26.8985C28.2784 27.2354 28.4901 27.6469 28.5867 28.0916C28.6832 28.5362 28.6611 28.9985 28.5225 29.4319C28.3839 29.8653 28.1338 30.2546 27.7972 30.5608C27.4606 30.867 27.0494 31.0793 26.6048 31.1763Z" fill="url(#paint10_linear)"/>
</g>
<path d="M54.4642 11.5H57.0642V25.5H54.4642V11.5ZM73.2909 11.5V25.5H71.1509L63.4309 16.02V25.5H60.8509V11.5H62.9909L70.7109 20.98V11.5H73.2909ZM79.6424 13.68V17.94H86.4024V20.14H79.6424V25.5H77.0424V11.5H87.2624V13.68H79.6424ZM89.7767 11.5H92.3767V25.5H89.7767V11.5ZM108.603 11.5V25.5H106.463L98.7434 16.02V25.5H96.1634V11.5H98.3034L106.023 20.98V11.5H108.603ZM112.355 11.5H114.955V25.5H112.355V11.5ZM121.582 13.7H116.942V11.5H128.822V13.7H124.182V25.5H121.582V13.7ZM136.618 20.56V25.5H134.018V20.6L128.518 11.5H131.298L135.398 18.32L139.538 11.5H142.098L136.618 20.56ZM149.328 11.5H151.928V23.3H159.248V25.5H149.328V11.5ZM171.8 23.32V25.5H161.3V11.5H171.52V13.68H163.9V17.32H170.66V19.46H163.9V23.32H171.8ZM183.779 22.26H176.779L175.399 25.5H172.719L179.019 11.5H181.579L187.899 25.5H185.179L183.779 22.26ZM182.919 20.22L180.279 14.1L177.659 20.22H182.919ZM198.839 25.5L195.979 21.4C195.859 21.4133 195.679 21.42 195.439 21.42H192.279V25.5H189.679V11.5H195.439C196.652 11.5 197.706 11.7 198.599 12.1C199.506 12.5 200.199 13.0733 200.679 13.82C201.159 14.5667 201.399 15.4533 201.399 16.48C201.399 17.5333 201.139 18.44 200.619 19.2C200.112 19.96 199.379 20.5267 198.419 20.9L201.639 25.5H198.839ZM198.779 16.48C198.779 15.5867 198.486 14.9 197.899 14.42C197.312 13.94 196.452 13.7 195.319 13.7H192.279V19.28H195.319C196.452 19.28 197.312 19.04 197.899 18.56C198.486 18.0667 198.779 17.3733 198.779 16.48ZM216.748 11.5V25.5H214.608L206.888 16.02V25.5H204.308V11.5H206.448L214.168 20.98V11.5H216.748Z" fill="#1E2A36"/>
<defs>
<linearGradient id="paint0_linear" x1="14.8948" y1="12.0667" x2="19.0437" y2="1.98935" gradientUnits="userSpaceOnUse">
<stop stop-color="white"/>
<stop offset="0.18" stop-color="#FCFCFC"/>
<stop offset="0.32" stop-color="#F3F2F2"/>
<stop offset="0.45" stop-color="#E3E2E2"/>
<stop offset="0.56" stop-color="#CCCBCB"/>
<stop offset="0.67" stop-color="#AFAEAE"/>
<stop offset="0.78" stop-color="#8B898A"/>
<stop offset="0.88" stop-color="#615E5F"/>
<stop offset="0.97" stop-color="#312D2E"/>
<stop offset="1" stop-color="#231F20"/>
</linearGradient>
<linearGradient id="paint1_linear" x1="15.6585" y1="14.7027" x2="19.9148" y2="4.62553" gradientUnits="userSpaceOnUse">
<stop offset="1" stop-color="#231F20"/>
</linearGradient>
<linearGradient id="paint2_linear" x1="17.945" y1="14.7897" x2="18.0486" y2="3.90644" gradientUnits="userSpaceOnUse">
<stop stop-color="#368ACA"/>
<stop offset="1" stop-color="#206792"/>
</linearGradient>
<linearGradient id="paint3_linear" x1="3253.28" y1="-6133.12" x2="3132.65" y2="-6242.55" gradientUnits="userSpaceOnUse">
<stop offset="1" stop-color="#231F20"/>
</linearGradient>
<linearGradient id="paint4_linear" x1="15.2041" y1="17.2434" x2="4.90007" y2="13.6639" gradientUnits="userSpaceOnUse">
<stop stop-color="#F16667"/>
<stop offset="1" stop-color="#A41E24"/>
</linearGradient>
<linearGradient id="paint5_linear" x1="327.334" y1="4837.09" x2="478.368" y2="4848.1" gradientUnits="userSpaceOnUse">
<stop offset="1" stop-color="#231F20"/>
</linearGradient>
<linearGradient id="paint6_linear" x1="22.9448" y1="17.2057" x2="33.2528" y2="13.6407" gradientUnits="userSpaceOnUse">
<stop stop-color="#48BC94"/>
<stop offset="1" stop-color="#237D5A"/>
</linearGradient>
<linearGradient id="paint7_linear" x1="-4453.93" y1="-5386.12" x2="-4641.59" y2="-5281.83" gradientUnits="userSpaceOnUse">
<stop offset="1" stop-color="#231F20"/>
</linearGradient>
<linearGradient id="paint8_linear" x1="17.0619" y1="21.5873" x2="10.2949" y2="30.1108" gradientUnits="userSpaceOnUse">
<stop stop-color="#91288D"/>
<stop offset="1" stop-color="#541B54"/>
</linearGradient>
<linearGradient id="paint9_linear" x1="-4113.17" y1="572.977" x2="-4044.08" y2="834.254" gradientUnits="userSpaceOnUse">
<stop offset="1" stop-color="#231F20"/>
</linearGradient>
<linearGradient id="paint10_linear" x1="21.0409" y1="21.2257" x2="27.488" y2="29.9945" gradientUnits="userSpaceOnUse">
<stop stop-color="#FBD13A"/>
<stop offset="1" stop-color="#A3852F"/>
</linearGradient>
<clipPath id="clip0">
<rect width="36.5843" height="37" fill="white"/>
</clipPath>
</defs>
</svg>
