<svg width="224" height="37" viewBox="0 0 224 37" fill="none" xmlns="http://www.w3.org/2000/svg">
<path d="M58.88 14H61.48V28H58.88V14ZM77.7067 14V28H75.5667L67.8467 18.52V28H65.2667V14H67.4067L75.1267 23.48V14H77.7067ZM84.0581 16.18V20.44H90.8181V22.64H84.0581V28H81.4581V14H91.6781V16.18H84.0581ZM94.1925 14H96.7925V28H94.1925V14ZM113.019 14V28H110.879L103.159 18.52V28H100.579V14H102.719L110.439 23.48V14H113.019ZM116.771 14H119.371V28H116.771V14ZM125.997 16.2H121.357V14H133.237V16.2H128.597V28H125.997V16.2ZM141.033 23.06V28H138.433V23.1L132.933 14H135.713L139.813 20.82L143.953 14H146.513L141.033 23.06ZM153.743 14H156.343V25.8H163.663V28H153.743V14ZM176.216 25.82V28H165.716V14H175.936V16.18H168.316V19.82H175.076V21.96H168.316V25.82H176.216ZM188.194 24.76H181.194L179.814 28H177.134L183.434 14H185.994L192.314 28H189.594L188.194 24.76ZM187.334 22.72L184.694 16.6L182.074 22.72H187.334ZM203.255 28L200.395 23.9C200.275 23.9133 200.095 23.92 199.855 23.92H196.695V28H194.095V14H199.855C201.068 14 202.122 14.2 203.015 14.6C203.922 15 204.615 15.5733 205.095 16.32C205.575 17.0667 205.815 17.9533 205.815 18.98C205.815 20.0333 205.555 20.94 205.035 21.7C204.528 22.46 203.795 23.0267 202.835 23.4L206.055 28H203.255ZM203.195 18.98C203.195 18.0867 202.902 17.4 202.315 16.92C201.728 16.44 200.868 16.2 199.735 16.2H196.695V21.78H199.735C200.868 21.78 201.728 21.54 202.315 21.06C202.902 20.5667 203.195 19.8733 203.195 18.98ZM221.164 14V28H219.024L211.304 18.52V28H208.724V14H210.864L218.584 23.48V14H221.164Z" fill="white"/>
<path d="M18.8764 4.7029L19.579 11.0178C19.6324 11.5711 19.5391 12.1287 19.3085 12.6345C19.0778 13.1403 18.718 13.5764 18.2652 13.8989L16.0951 15.4454L14.7897 2.90694C14.744 2.44343 14.8217 1.97606 15.015 1.55229C15.2082 1.12851 15.5102 0.763414 15.8902 0.494053C16.2701 0.224691 16.7146 0.0606563 17.1785 0.0185982C17.6423 -0.02346 18.1091 0.057956 18.5313 0.254582L28.5338 4.82762L26.4551 6.29099C25.9635 6.64227 25.3879 6.85762 24.7864 6.91529C24.185 6.97295 23.5789 6.87089 23.0295 6.61941L18.8764 4.7029Z" fill="#368ACA"/>
<path style="mix-blend-mode:darken" d="M18.9803 4.76057L18.8763 4.70237L19.5789 11.0173C19.6323 11.5706 19.539 12.1282 19.3084 12.634C19.0778 13.1398 18.718 13.5758 18.2652 13.8983L16.0951 15.4448L15.3177 7.37136C15.2746 6.91773 15.3516 6.46075 15.5408 6.04626C15.7301 5.63178 16.0251 5.27436 16.3962 5.00986C16.7672 4.74537 17.2013 4.58311 17.6548 4.53935C18.1084 4.4956 18.5655 4.57189 18.9803 4.76057Z" fill="url(#paint0_linear)"/>
<path d="M18.5064 20.837C19.4868 20.837 20.2815 20.0422 20.2815 19.0618C20.2815 18.0814 19.4868 17.2866 18.5064 17.2866C17.526 17.2866 16.7312 18.0814 16.7312 19.0618C16.7312 20.0422 17.526 20.837 18.5064 20.837Z" fill="#ED1C24"/>
<path d="M18.8472 4.71094L19.5373 11.03C19.5879 11.5831 19.4919 12.1398 19.2591 12.6441C19.0263 13.1484 18.6649 13.5825 18.2111 13.9027L16.0286 15.4451L14.7814 2.88173C14.7388 2.41955 14.8189 1.95433 15.0135 1.53298C15.2081 1.11162 15.5104 0.749015 15.8898 0.481724C16.2693 0.214433 16.7125 0.0519021 17.1748 0.0105166C17.637 -0.0308688 18.1021 0.0503545 18.5229 0.245998L28.5005 4.85229L26.4218 6.30735C25.9282 6.6566 25.3514 6.86968 24.7493 6.92514C24.1472 6.98061 23.5411 6.8765 22.992 6.6233L18.8472 4.71094Z" fill="#368ACA"/>
<path d="M18.9512 4.77332L18.8472 4.71096L19.5374 11.0301C19.5879 11.5832 19.492 12.1398 19.2592 12.6441C19.0264 13.1484 18.6649 13.5825 18.2112 13.9028L16.0286 15.4451L15.2761 7.36748C15.2337 6.9132 15.3119 6.45577 15.5027 6.04135C15.6935 5.62692 15.9903 5.27015 16.363 5.00704C16.7358 4.74393 17.1713 4.58378 17.6257 4.54274C18.0801 4.50171 18.5373 4.58124 18.9512 4.77332Z" fill="url(#paint1_linear)"/>
<path d="M18.9512 4.77332L18.8472 4.71096L19.5374 11.0301C19.5879 11.5832 19.492 12.1398 19.2592 12.6441C19.0264 13.1484 18.6649 13.5825 18.2112 13.9028L16.0286 15.4451L15.2761 7.36748C15.2337 6.9132 15.3119 6.45577 15.5027 6.04135C15.6935 5.62692 15.9903 5.27015 16.363 5.00704C16.7358 4.74393 17.1713 4.58378 17.6257 4.54274C18.0801 4.50171 18.5373 4.58124 18.9512 4.77332Z" fill="url(#paint2_linear)"/>
<path d="M5.06159 13.7947L11.2643 15.1583C11.8058 15.2864 12.3041 15.5548 12.7091 15.9365C13.114 16.3181 13.4115 16.7996 13.5716 17.3325L14.3365 19.8893L2.03092 17.0831C1.58033 16.9763 1.16577 16.7528 0.828852 16.4351C0.491931 16.1174 0.244502 15.7167 0.1114 15.2732C-0.0217018 14.8297 -0.035793 14.3589 0.0705407 13.9082C0.176874 13.4575 0.399892 13.0427 0.717208 12.7054L8.2544 4.70264L8.98193 7.12219C9.15598 7.70089 9.17462 8.31523 9.03596 8.90342C8.8973 9.49161 8.60624 10.0329 8.19204 10.473L5.06159 13.7947Z" fill="#F16667"/>
<path d="M5.15305 13.7158L5.06158 13.7948L11.2643 15.1584C11.8058 15.2866 12.3041 15.555 12.7091 15.9366C13.114 16.3182 13.4115 16.7997 13.5716 17.3327L14.3365 19.8894L6.43765 18.0269C5.99439 17.9209 5.58681 17.7002 5.25582 17.3869C4.92483 17.0735 4.68207 16.6787 4.55192 16.2419C4.42177 15.8051 4.4088 15.3418 4.51431 14.8984C4.61982 14.455 4.8401 14.0472 5.15305 13.7158Z" fill="url(#paint3_linear)"/>
<path d="M5.15305 13.7158L5.06158 13.7948L11.2643 15.1584C11.8058 15.2866 12.3041 15.555 12.7091 15.9366C13.114 16.3182 13.4115 16.7997 13.5716 17.3327L14.3365 19.8894L6.43765 18.0269C5.99439 17.9209 5.58681 17.7002 5.25582 17.3869C4.92483 17.0735 4.68207 16.6787 4.55192 16.2419C4.42177 15.8051 4.4088 15.3418 4.51431 14.8984C4.61982 14.455 4.8401 14.0472 5.15305 13.7158Z" fill="url(#paint4_linear)"/>
<path d="M32.0424 14.6429L26.3095 17.3784C25.8035 17.6096 25.2456 17.7036 24.6918 17.6511C24.1379 17.5986 23.6076 17.4013 23.1541 17.0791L20.9799 15.5367L32.4249 10.1904C32.8468 9.99404 33.3131 9.91268 33.7766 9.95457C34.24 9.99646 34.6842 10.1601 35.064 10.429C35.4439 10.6978 35.7459 11.0623 35.9395 11.4854C36.1331 11.9086 36.2114 12.3754 36.1665 12.8386L35.1064 23.7806L33.0277 22.3173C32.5348 21.9673 32.1428 21.4938 31.891 20.9443C31.6393 20.3947 31.5366 19.7886 31.5935 19.1868L32.0424 14.6429Z" fill="#48BC94"/>
<path d="M32.0092 14.7589L32.0341 14.6425L26.3095 17.378C25.8035 17.6092 25.2456 17.7033 24.6918 17.6507C24.1379 17.5982 23.6076 17.4009 23.1541 17.0787L20.9799 15.5364L28.3549 12.1565C28.7685 11.9676 29.2245 11.8909 29.6771 11.9341C30.1298 11.9773 30.563 12.1389 30.9334 12.4027C31.3038 12.6664 31.5982 13.0231 31.787 13.4367C31.9758 13.8503 32.0525 14.3063 32.0092 14.7589Z" fill="url(#paint5_linear)"/>
<path d="M32.0092 14.7589L32.0341 14.6425L26.3095 17.378C25.8035 17.6092 25.2456 17.7033 24.6918 17.6507C24.1379 17.5982 23.6076 17.4009 23.1541 17.0787L20.9799 15.5364L28.3549 12.1565C28.7685 11.9676 29.2245 11.8909 29.6771 11.9341C30.1298 11.9773 30.563 12.1389 30.9334 12.4027C31.3038 12.6664 31.5982 13.0231 31.787 13.4367C31.9758 13.8503 32.0525 14.3063 32.0092 14.7589Z" fill="url(#paint6_linear)"/>
<path d="M9.21471 29.9294L12.5406 24.5249C12.8396 24.056 13.2567 23.674 13.7499 23.4172C14.2432 23.1603 14.7953 23.0377 15.3509 23.0615L18.0157 23.1779L11.3225 33.8871C11.0746 34.2802 10.7272 34.6008 10.3155 34.8164C9.90373 35.0319 9.44233 35.1348 8.97803 35.1145C8.51373 35.0943 8.06305 34.9516 7.67167 34.701C7.28028 34.4504 6.96212 34.1008 6.74943 33.6876L1.66089 23.9387L4.18437 24.0468C4.78908 24.0728 5.37631 24.2575 5.8871 24.5822C6.39789 24.9069 6.81429 25.3603 7.09448 25.8968L9.21471 29.9294Z" fill="#92278F"/>
<path d="M9.17322 29.8337L9.21479 29.946L12.5406 24.5415C12.8397 24.0726 13.2567 23.6906 13.75 23.4338C14.2433 23.1769 14.7954 23.0543 15.351 23.0781L18.0158 23.1945L13.6673 30.0291C13.423 30.4144 13.0814 30.7285 12.6769 30.9396C12.2725 31.1508 11.8195 31.2515 11.3637 31.2317C10.9079 31.2119 10.4654 31.0722 10.0808 30.8268C9.69622 30.5813 9.38316 30.2388 9.17322 29.8337Z" fill="url(#paint7_linear)"/>
<path d="M9.17322 29.8337L9.21479 29.946L12.5406 24.5415C12.8397 24.0726 13.2567 23.6906 13.75 23.4338C14.2433 23.1769 14.7954 23.0543 15.351 23.0781L18.0158 23.1945L13.6673 30.0291C13.423 30.4144 13.0814 30.7285 12.6769 30.9396C12.2725 31.1508 11.8195 31.2515 11.3637 31.2317C10.9079 31.2119 10.4654 31.0722 10.0808 30.8268C9.69622 30.5813 9.38316 30.2388 9.17322 29.8337Z" fill="url(#paint8_linear)"/>
<path d="M26.7253 31.1763L22.3726 26.5367C21.9986 26.1257 21.7395 25.6235 21.6212 25.0805C21.503 24.5375 21.5299 23.973 21.6991 23.4437L22.5098 20.8994L31.078 30.166C31.3901 30.5087 31.6065 30.9274 31.7055 31.3802C31.8044 31.833 31.7824 32.3038 31.6417 32.7454C31.5009 33.1869 31.2464 33.5837 30.9038 33.8957C30.5611 34.2077 30.1423 34.424 29.6895 34.5229L18.9512 36.8676L19.7161 34.4605C19.9007 33.8846 20.2332 33.3673 20.6804 32.9602C21.1276 32.5531 21.6739 32.2706 22.2645 32.1408L26.7253 31.1763Z" fill="#FBD13A"/>
<path d="M26.6048 31.1763H26.7254L22.3727 26.5367C21.9987 26.1257 21.7395 25.6235 21.6213 25.0805C21.503 24.5375 21.5299 23.973 21.6992 23.4437L22.5099 20.8994L27.9726 26.8984C28.2784 27.2354 28.4901 27.6468 28.5867 28.0915C28.6832 28.5362 28.6611 28.9984 28.5225 29.4318C28.3839 29.8652 28.1338 30.2546 27.7972 30.5608C27.4606 30.867 27.0494 31.0792 26.6048 31.1763Z" fill="url(#paint9_linear)"/>
<path d="M26.6048 31.1763H26.7254L22.3727 26.5367C21.9987 26.1257 21.7395 25.6235 21.6213 25.0805C21.503 24.5375 21.5299 23.973 21.6992 23.4437L22.5099 20.8994L27.9726 26.8984C28.2784 27.2354 28.4901 27.6468 28.5867 28.0915C28.6832 28.5362 28.6611 28.9984 28.5225 29.4318C28.3839 29.8652 28.1338 30.2546 27.7972 30.5608C27.4606 30.867 27.0494 31.0792 26.6048 31.1763Z" fill="url(#paint10_linear)"/>
<defs>
<linearGradient id="paint0_linear" x1="14.8948" y1="12.0664" x2="19.0437" y2="1.9891" gradientUnits="userSpaceOnUse">
<stop stop-color="white"/>
<stop offset="0.18" stop-color="#FCFCFC"/>
<stop offset="0.32" stop-color="#F3F2F2"/>
<stop offset="0.45" stop-color="#E3E2E2"/>
<stop offset="0.56" stop-color="#CCCBCB"/>
<stop offset="0.67" stop-color="#AFAEAE"/>
<stop offset="0.78" stop-color="#8B898A"/>
<stop offset="0.88" stop-color="#615E5F"/>
<stop offset="0.97" stop-color="#312D2E"/>
<stop offset="1" stop-color="#231F20"/>
</linearGradient>
<linearGradient id="paint1_linear" x1="15.6585" y1="14.7027" x2="19.9148" y2="4.62553" gradientUnits="userSpaceOnUse">
<stop offset="1" stop-color="#231F20"/>
</linearGradient>
<linearGradient id="paint2_linear" x1="17.945" y1="14.7897" x2="18.0486" y2="3.90644" gradientUnits="userSpaceOnUse">
<stop stop-color="#368ACA"/>
<stop offset="1" stop-color="#206792"/>
</linearGradient>
<linearGradient id="paint3_linear" x1="3253.28" y1="-6133.12" x2="3132.65" y2="-6242.55" gradientUnits="userSpaceOnUse">
<stop offset="1" stop-color="#231F20"/>
</linearGradient>
<linearGradient id="paint4_linear" x1="15.2041" y1="17.2436" x2="4.90007" y2="13.6641" gradientUnits="userSpaceOnUse">
<stop stop-color="#F16667"/>
<stop offset="1" stop-color="#A41E24"/>
</linearGradient>
<linearGradient id="paint5_linear" x1="327.334" y1="4837.09" x2="478.368" y2="4848.1" gradientUnits="userSpaceOnUse">
<stop offset="1" stop-color="#231F20"/>
</linearGradient>
<linearGradient id="paint6_linear" x1="22.9448" y1="17.2055" x2="33.2528" y2="13.6405" gradientUnits="userSpaceOnUse">
<stop stop-color="#48BC94"/>
<stop offset="1" stop-color="#237D5A"/>
</linearGradient>
<linearGradient id="paint7_linear" x1="-4453.93" y1="-5386.12" x2="-4641.59" y2="-5281.83" gradientUnits="userSpaceOnUse">
<stop offset="1" stop-color="#231F20"/>
</linearGradient>
<linearGradient id="paint8_linear" x1="17.0619" y1="21.5875" x2="10.2949" y2="30.111" gradientUnits="userSpaceOnUse">
<stop stop-color="#91288D"/>
<stop offset="1" stop-color="#541B54"/>
</linearGradient>
<linearGradient id="paint9_linear" x1="-4113.17" y1="572.977" x2="-4044.08" y2="834.253" gradientUnits="userSpaceOnUse">
<stop offset="1" stop-color="#231F20"/>
</linearGradient>
<linearGradient id="paint10_linear" x1="21.0409" y1="21.2257" x2="27.488" y2="29.9944" gradientUnits="userSpaceOnUse">
<stop stop-color="#FBD13A"/>
<stop offset="1" stop-color="#A3852F"/>
</linearGradient>
</defs>
</svg>
