<svg width="20" height="21" viewBox="0 0 20 21" fill="none" xmlns="http://www.w3.org/2000/svg">
<path d="M15.5 4.5C16.8807 4.5 18 5.61929 18 7V15C18 16.3807 16.8807 17.5 15.5 17.5H4.5C3.11929 17.5 2 16.3807 2 15V7C2 5.61929 3.11929 4.5 4.5 4.5H15.5ZM17 8.461L10.2535 12.431C10.1231 12.5077 9.96661 12.5205 9.82751 12.4693L9.74649 12.431L3 8.463V15C3 15.8284 3.67157 16.5 4.5 16.5H15.5C16.3284 16.5 17 15.8284 17 15V8.461ZM15.5 5.5H4.5C3.67157 5.5 3 6.17157 3 7V7.302L10 11.4199L17 7.301V7C17 6.17157 16.3284 5.5 15.5 5.5Z" fill="#263643"/>
</svg>
