<svg width="56" height="56" viewBox="0 0 56 56" fill="none" xmlns="http://www.w3.org/2000/svg">
<path d="M28.3578 33.8577L21.3293 42.6324C21.1161 42.8985 21 43.2292 21 43.5702V54.5C21 54.7761 21.2239 55 21.5 55H49.5C49.7761 55 50 54.7761 50 54.5V32.6562C50 31.4887 48.7251 30.7688 47.7254 31.3716L39.8126 36.1432C39.4166 36.3821 38.9325 36.4248 38.5006 36.2591L30.6353 33.2409C29.8227 32.929 28.9018 33.1785 28.3578 33.8577Z" fill="#FFDF5F"/>
<circle cx="19.5" cy="18.5" r="9.5" fill="#FFDF5F"/>
<path d="M26.6239 14.7576C26.6239 20.1465 22.231 24.5152 16.812 24.5152C11.393 24.5152 7 20.1465 7 14.7576C7 9.36861 11.393 5 16.812 5M26.6239 14.7576C26.6239 9.36861 22.231 5 16.812 5M26.6239 14.7576L16.8119 14.7576L16.812 5M18.5641 39.1515V51M38.188 31.8333V51M28.3761 29.3939V51M48 26.9545V51" stroke="#263643" stroke-width="2.5" stroke-linecap="round" stroke-linejoin="round"/>
</svg>
