<svg width="44" height="45" viewBox="0 0 44 45" fill="none" xmlns="http://www.w3.org/2000/svg">
<rect width="44" height="45" rx="22" fill="#E5E9EC"/>
<path d="M31.7071 21.2929C32.0976 21.6834 32.0976 22.3166 31.7071 22.7071L25.3431 29.0711C24.9526 29.4616 24.3195 29.4616 23.9289 29.0711C23.5384 28.6805 23.5384 28.0474 23.9289 27.6569L29.5858 22L23.9289 16.3431C23.5384 15.9526 23.5384 15.3195 23.9289 14.9289C24.3195 14.5384 24.9526 14.5384 25.3431 14.9289L31.7071 21.2929ZM13 23C12.4477 23 12 22.5523 12 22C12 21.4477 12.4477 21 13 21V23ZM31 23H13V21H31V23Z" fill="#263643"/>
</svg>
