<svg xmlns="http://www.w3.org/2000/svg" viewBox="0 0 20 20" width="20" height="20">
	<style>
		tspan { white-space:pre }
		.shp0 { fill: #e8e8e8 } 
		.shp1 { fill: #f6f6f6;stroke: #b8c2cc } 
	</style>
	<path id="Layer" class="shp0" d="M10 0.5L10 0.5C15.25 0.5 19.5 4.75 19.5 10L19.5 10C19.5 15.25 15.25 19.5 10 19.5L10 19.5C4.75 19.5 0.5 15.25 0.5 10L0.5 10C0.5 4.75 4.75 0.5 10 0.5Z" />
	<path id="Layer" class="shp1" d="M10 0.5L10 0.5C15.25 0.5 19.5 4.75 19.5 10L19.5 10C19.5 15.25 15.25 19.5 10 19.5L10 19.5C4.75 19.5 0.5 15.25 0.5 10L0.5 10C0.5 4.75 4.75 0.5 10 0.5Z" />
</svg>