<svg width="20" height="21" viewBox="0 0 20 21" fill="none" xmlns="http://www.w3.org/2000/svg">
<path d="M10 2.5C11.6569 2.5 13 3.84315 13 5.5V6.5H14C15.1046 6.5 16 7.39543 16 8.5V15.5C16 16.6046 15.1046 17.5 14 17.5H6C4.89543 17.5 4 16.6046 4 15.5V8.5C4 7.39543 4.89543 6.5 6 6.5H7V5.5C7 3.84315 8.34315 2.5 10 2.5ZM14 7.5H6C5.44772 7.5 5 7.94772 5 8.5V15.5C5 16.0523 5.44772 16.5 6 16.5H14C14.5523 16.5 15 16.0523 15 15.5V8.5C15 7.94772 14.5523 7.5 14 7.5ZM10 11C10.5523 11 11 11.4477 11 12C11 12.5523 10.5523 13 10 13C9.44772 13 9 12.5523 9 12C9 11.4477 9.44772 11 10 11ZM10 3.5C8.89543 3.5 8 4.39543 8 5.5V6.5H12V5.5C12 4.39543 11.1046 3.5 10 3.5Z" fill="#263643"/>
</svg>
