<svg width="20" height="21" viewBox="0 0 20 21" fill="none" xmlns="http://www.w3.org/2000/svg">
<path d="M3.25903 12.1021C3.94248 8.82689 6.79431 6.5 9.99995 6.5C13.2056 6.5 16.0574 8.82688 16.7409 12.1021C16.7973 12.3725 17.0622 12.5459 17.3325 12.4895C17.6028 12.433 17.7762 12.1682 17.7198 11.8979C16.9425 8.17312 13.6934 5.5 9.99995 5.5C6.30654 5.5 3.05736 8.17311 2.28011 11.8979C2.22371 12.1682 2.39712 12.433 2.66744 12.4895C2.93776 12.5459 3.20262 12.3725 3.25903 12.1021ZM9.98947 8.5C11.9225 8.5 13.4895 10.067 13.4895 12C13.4895 13.933 11.9225 15.5 9.98947 15.5C8.05647 15.5 6.48947 13.933 6.48947 12C6.48947 10.067 8.05647 8.5 9.98947 8.5Z" fill="#263643"/>
</svg>
