<svg width="12" height="16" viewBox="0 0 12 16" fill="none" xmlns="http://www.w3.org/2000/svg">
<path d="M6 0.5C7.65685 0.5 9 1.84315 9 3.5V4.5H10C11.1046 4.5 12 5.39543 12 6.5V13.5C12 14.6046 11.1046 15.5 10 15.5H2C0.89543 15.5 0 14.6046 0 13.5V6.5C0 5.39543 0.89543 4.5 2 4.5H3V3.5C3 1.84315 4.34315 0.5 6 0.5ZM10 5.5H2C1.44772 5.5 1 5.94772 1 6.5V13.5C1 14.0523 1.44772 14.5 2 14.5H10C10.5523 14.5 11 14.0523 11 13.5V6.5C11 5.94772 10.5523 5.5 10 5.5ZM6 9C6.55228 9 7 9.44772 7 10C7 10.5523 6.55228 11 6 11C5.44772 11 5 10.5523 5 10C5 9.44772 5.44772 9 6 9ZM6 1.5C4.89543 1.5 4 2.39543 4 3.5V4.5H8V3.5C8 2.39543 7.10457 1.5 6 1.5Z" fill="#263643"/>
</svg>
