<svg width="41" height="41" viewBox="0 0 41 41" fill="none" xmlns="http://www.w3.org/2000/svg">
<path d="M23.7341 6.34923L8.82445 13.8699C8.31888 14.1249 8 14.6429 8 15.2091V31.591C8 32.1572 8.31888 32.6752 8.82445 32.9302L23.7341 40.4509C24.1684 40.6699 24.6819 40.6648 25.1117 40.4372L39.2727 32.937C39.7637 32.677 40.0707 32.1669 40.0707 31.6114V15.1887C40.0707 14.6332 39.7637 14.1231 39.2727 13.8631L25.1117 6.36294C24.6819 6.13529 24.1684 6.13018 23.7341 6.34923Z" fill="#B5F0DC"/>
<path d="M18.3161 1.69824L1.33301 10.1898L18.3161 18.6813L35.2991 10.1898L18.3161 1.69824Z" stroke="#263643" stroke-width="2.5" stroke-linecap="round" stroke-linejoin="round"/>
<path d="M1.33301 18.6808L18.3161 27.1723L35.2991 18.6808" stroke="#263643" stroke-width="2.5" stroke-linecap="round" stroke-linejoin="round"/>
<path d="M1.33301 27.1726L18.3161 35.6641L35.2991 27.1726" stroke="#263643" stroke-width="2.5" stroke-linecap="round" stroke-linejoin="round"/>
</svg>
