<svg width="91" height="90" viewBox="0 0 91 90" fill="none" xmlns="http://www.w3.org/2000/svg">
<ellipse cx="60.3333" cy="23" rx="24" ry="21" fill="#A1D5FD"/>
<path d="M21.5505 58.157V64.9374L9.21355 69.3544C6.25845 70.4093 4.33325 73.2079 4.33325 76.3415V80.9995H51.2893V76.3415C51.2893 73.2079 49.3641 70.4093 46.409 69.3544L34.0721 64.9374V57.7156" stroke="black" stroke-width="2" stroke-linejoin="round"/>
<path fill-rule="evenodd" clip-rule="evenodd" d="M39.8588 45.1618C39.8588 53.3509 34.3274 59.9905 27.5031 59.9905C20.6757 59.9905 15.1443 53.3509 15.1443 45.1618C15.1443 36.9758 20.6757 30.3394 27.5031 30.3394C34.3274 30.3394 39.8588 36.9758 39.8588 45.1618V45.1618Z" stroke="black" stroke-width="2" stroke-linejoin="round"/>
<path d="M37.8332 37C36.4433 39.6608 23.6587 43.929 20.0901 43.929C18.3308 43.929 16.7812 43.6097 15.2661 42.8146" stroke="black" stroke-width="2" stroke-linejoin="round"/>
<path d="M35.6372 27.7824C35.6372 17.4083 44.7467 9 55.9848 9C67.2229 9 76.3324 17.4083 76.3324 27.7824C76.3324 35.5959 71.1672 42.2949 63.8108 45.1217C62.2456 46.5648 52.8419 54.3908 51.2767 55.956C51.2767 54.3908 51.2767 48.13 51.2892 46.3457C49.627 46.1109 48.0336 45.6914 46.5279 45.106" stroke="black" stroke-width="2" stroke-linejoin="round"/>
<path fill-rule="evenodd" clip-rule="evenodd" d="M62.2456 30.9129H65.376V27.7825H62.2456V30.9129Z" fill="black"/>
<path fill-rule="evenodd" clip-rule="evenodd" d="M54.4197 30.9129H57.5501V27.7825H54.4197V30.9129Z" fill="black"/>
<path fill-rule="evenodd" clip-rule="evenodd" d="M46.5938 30.9129H49.7241V27.7825H46.5938V30.9129Z" fill="black"/>
</svg>
