<svg width="13" height="17" viewBox="0 0 13 17" fill="none" xmlns="http://www.w3.org/2000/svg">
<path d="M3.98706 0.565831L3.27036 0.781862C1.96684 1.17478 1.00944 2.28795 0.815977 3.63559C0.519004 5.70432 1.18323 8.12236 2.78368 10.8944C4.38077 13.6606 6.13867 15.4432 8.07389 16.223C9.34348 16.7346 10.7948 16.4591 11.7886 15.5179L12.3314 15.0039C13.0589 14.3149 13.1643 13.194 12.5781 12.3815L11.2215 10.5013C10.8458 9.98067 10.1805 9.75684 9.56651 9.94454L7.5158 10.5715L7.4628 10.5819C7.23663 10.6149 6.7154 10.1259 6.06527 8.9998C5.38512 7.82175 5.24417 7.13292 5.43194 6.95535L6.47529 5.98242C7.25723 5.25326 7.48825 4.10722 7.04987 3.13206L6.38841 1.66069C5.97652 0.744447 4.94888 0.275914 3.98706 0.565831ZM5.47634 2.07071L6.13779 3.54209C6.40063 4.12676 6.26212 4.81388 5.7933 5.25107L4.74739 6.22639C4.0783 6.85912 4.29992 7.94212 5.19924 9.4998C6.04545 10.9655 6.81744 11.6898 7.64695 11.5642L7.77128 11.5376L9.85888 10.9008C10.0635 10.8383 10.2853 10.9129 10.4105 11.0864L11.7671 12.9666C12.0603 13.3728 12.0076 13.9333 11.6438 14.2778L11.101 14.7918C10.3911 15.4641 9.35449 15.6609 8.44764 15.2955C6.74957 14.6112 5.14475 12.9839 3.64971 10.3944C2.15161 7.79963 1.54531 5.59248 1.80583 3.77769C1.94402 2.81509 2.62787 2.01997 3.55896 1.73931L4.27566 1.52328C4.75657 1.37832 5.27039 1.61259 5.47634 2.07071Z" fill="#263643"/>
</svg>
