<svg xmlns="http://www.w3.org/2000/svg" viewBox="0 0 91 86" width="91" height="86">
	<style>
		tspan { white-space:pre }
		.shp0 { fill: #29d398 } 
		.shp1 { fill: none;stroke: #263643;stroke-linecap:round;stroke-linejoin:round;stroke-width: 3 } 
	</style>
	<path id="Layer" fill-rule="evenodd" class="shp0" d="M51.08 83C43.83 80.08 22.92 73.62 12 73.62L12 15C32.78 15 51.08 20.57 51.08 27.43C51.08 20.57 69.37 15 90.16 15L90.16 73.62C88.97 73.62 86.61 73.68 86.61 73.68" />
	<path id="Layer" class="shp1" d="M32.41 67.79C25.15 64.87 14.92 62.84 4 62.84L4 4.22C24.78 4.22 43.08 9.78 43.08 16.65C43.08 9.78 61.37 4.22 82.16 4.22L82.16 62.84C80.97 62.84 78.61 62.9 78.61 62.9" />
	<path id="Layer" class="shp1" d="M43.08 16.65L43.08 18.43" />
	<path id="Layer" class="shp1" d="M71.5 46.85C71.5 58.63 61.96 68.17 50.19 68.17C38.42 68.17 28.87 58.63 28.87 46.85C28.87 35.08 38.42 25.54 50.19 25.54C61.96 25.54 71.5 35.08 71.5 46.85L71.5 46.85Z" />
	<path id="Layer" class="shp1" d="M65.34 62.01L85.71 82.38" />
</svg>