<svg width="44" height="45" viewBox="0 0 44 45" fill="none" xmlns="http://www.w3.org/2000/svg">
<rect width="44" height="45" rx="22" fill="#E5E9EC"/>
<path d="M12.2929 21.2929C11.9024 21.6834 11.9024 22.3166 12.2929 22.7071L18.6569 29.0711C19.0474 29.4616 19.6805 29.4616 20.0711 29.0711C20.4616 28.6805 20.4616 28.0474 20.0711 27.6569L14.4142 22L20.0711 16.3431C20.4616 15.9526 20.4616 15.3195 20.0711 14.9289C19.6805 14.5384 19.0474 14.5384 18.6569 14.9289L12.2929 21.2929ZM31 23C31.5523 23 32 22.5523 32 22C32 21.4477 31.5523 21 31 21V23ZM13 23H31V21H13V23Z" fill="#263643"/>
</svg>
