<svg width="18" height="19" viewBox="0 0 18 19" fill="none" xmlns="http://www.w3.org/2000/svg">
<path d="M10.2049 3.7777L4.68175 6.56363C4.17618 6.81865 3.8573 7.33664 3.8573 7.9029V13.8684C3.8573 14.4346 4.17618 14.9526 4.68175 15.2076L10.2049 17.9936C10.6391 18.2126 11.1526 18.2075 11.5825 17.9799L16.8039 15.2144C17.2949 14.9544 17.6019 14.4443 17.6019 13.8888V7.88244C17.6019 7.32692 17.2949 6.81689 16.8039 6.55688L11.5825 3.79141C11.1526 3.56376 10.6391 3.55865 10.2049 3.7777Z" fill="#B5F0DC"/>
<path d="M8.27845 1.58496L1 5.22419L8.27845 8.86341L15.5569 5.22419L8.27845 1.58496Z" stroke="#263643" stroke-width="1.5" stroke-linecap="round" stroke-linejoin="round"/>
<path d="M1 8.86328L8.27845 12.5025L15.5569 8.86328" stroke="#263643" stroke-width="1.5" stroke-linecap="round" stroke-linejoin="round"/>
<path d="M1 12.5024L8.27845 16.1417L15.5569 12.5024" stroke="#263643" stroke-width="1.5" stroke-linecap="round" stroke-linejoin="round"/>
</svg>
