<svg width="40" height="41" viewBox="0 0 40 41" fill="none" xmlns="http://www.w3.org/2000/svg">
<rect y="0.5" width="40" height="40" rx="20" fill="#263643"/>
<path d="M16.4997 11.1667V32.1667M12.9997 11.1667H25.833C26.4518 11.1667 27.0453 11.4126 27.4829 11.8502C27.9205 12.2878 28.1663 12.8812 28.1663 13.5001V27.5001C28.1663 28.1189 27.9205 28.7124 27.4829 29.15C27.0453 29.5876 26.4518 29.8334 25.833 29.8334H12.9997C12.6903 29.8334 12.3935 29.7105 12.1747 29.4917C11.9559 29.2729 11.833 28.9762 11.833 28.6667V12.3334C11.833 12.024 11.9559 11.7272 12.1747 11.5085C12.3935 11.2897 12.6903 11.1667 12.9997 11.1667V11.1667Z" stroke="white" stroke-width="1.5" stroke-linecap="round" stroke-linejoin="round"/>
<path d="M21.167 15.8333H23.5003" stroke="white" stroke-width="1.5" stroke-linecap="round" stroke-linejoin="round"/>
<path d="M21.167 20.5H23.5003" stroke="white" stroke-width="1.5" stroke-linecap="round" stroke-linejoin="round"/>
</svg>
