<svg width="20" height="20" viewBox="0 0 20 20" fill="none" xmlns="http://www.w3.org/2000/svg">
<path d="M9.99966 1.66574C14.6028 1.66574 18.3343 5.39728 18.3343 10.0004C18.3343 14.6035 14.6028 18.335 9.99966 18.335C5.39658 18.335 1.66504 14.6035 1.66504 10.0004C1.66504 5.39728 5.39658 1.66574 9.99966 1.66574ZM9.99966 2.91574C6.08693 2.91574 2.91504 6.08764 2.91504 10.0004C2.91504 13.9131 6.08693 17.085 9.99966 17.085C13.9124 17.085 17.0843 13.9131 17.0843 10.0004C17.0843 6.08764 13.9124 2.91574 9.99966 2.91574ZM9.9968 4.99907C12.7574 4.99907 14.9952 7.23695 14.9952 9.9975C14.9952 12.7581 12.7574 14.9959 9.9968 14.9959C7.23625 14.9959 4.99837 12.7581 4.99837 9.9975C4.99837 7.23695 7.23625 4.99907 9.9968 4.99907Z" fill="#263643"/>
</svg>
