<svg width="20" height="20" viewBox="0 0 20 20" fill="none" xmlns="http://www.w3.org/2000/svg">
<path d="M10.0002 1.66553C14.6032 1.66553 18.3348 5.39707 18.3348 10.0002C18.3348 14.6032 14.6032 18.3348 10.0002 18.3348C5.39707 18.3348 1.66553 14.6032 1.66553 10.0002C1.66553 5.39707 5.39707 1.66553 10.0002 1.66553ZM10.0002 2.91553C6.08742 2.91553 2.91553 6.08742 2.91553 10.0002C2.91553 13.9129 6.08742 17.0848 10.0002 17.0848C13.9129 17.0848 17.0848 13.9129 17.0848 10.0002C17.0848 6.08742 13.9129 2.91553 10.0002 2.91553ZM9.99729 4.99886C12.7578 4.99886 14.9957 7.23673 14.9957 9.99729C14.9957 12.7578 12.7578 14.9957 9.99729 14.9957C7.23673 14.9957 4.99886 12.7578 4.99886 9.99729C4.99886 7.23673 7.23673 4.99886 9.99729 4.99886Z" fill="#00B174"/>
</svg>
