<svg xmlns="http://www.w3.org/2000/svg" viewBox="0 0 78 73" width="78" height="73">
	<style>
		tspan { white-space:pre }
		.shp0 { fill: #ffdf5f } 
		.shp1 { fill: none;stroke: #324452;stroke-linecap:round;stroke-linejoin:round;stroke-width: 3 } 
	</style>
	<path id="Layer" class="shp0" d="M45.24 71.48C62.74 71.48 76.92 57.3 76.92 39.8C76.92 22.3 62.74 8.12 45.24 8.12C27.74 8.12 13.56 22.3 13.56 39.8C13.56 57.3 27.74 71.48 45.24 71.48Z" />
	<path id="Layer" class="shp1" d="M34.68 3.32C17.18 3.32 3 17.5 3 35C3 52.5 17.18 66.68 34.68 66.68C52.18 66.68 66.36 52.5 66.36 35M34.68 3.32C52.18 3.32 66.36 17.5 66.36 35M34.68 3.32L34.68 35L66.36 35" />
</svg>