<svg width="20" height="16" viewBox="0 0 20 16" fill="none" xmlns="http://www.w3.org/2000/svg">
<path d="M19.7071 7.29289C20.0976 7.68342 20.0976 8.31658 19.7071 8.70711L13.3431 15.0711C12.9526 15.4616 12.3195 15.4616 11.9289 15.0711C11.5384 14.6805 11.5384 14.0474 11.9289 13.6569L17.5858 8L11.9289 2.34315C11.5384 1.95262 11.5384 1.31946 11.9289 0.928932C12.3195 0.538408 12.9526 0.538408 13.3431 0.928932L19.7071 7.29289ZM1 9C0.447716 9 0 8.55228 0 8C0 7.44772 0.447716 7 1 7V9ZM19 9H1V7H19V9Z" fill="#263643"/>
</svg>
