<svg width="24" height="24" viewBox="0 0 24 24" fill="none" xmlns="http://www.w3.org/2000/svg">
<ellipse cx="13.0001" cy="13" rx="9" ry="9" fill="#B5F0DC"/>
<path d="M10.9999 1C6.03567 1 1.99988 5.03579 1.99988 10C1.99988 14.9642 6.03567 19 10.9999 19C15.9641 19 19.9999 14.9642 19.9999 10C19.9999 5.03579 15.9641 1 10.9999 1ZM10.9999 17.3326C6.96409 17.3326 3.66725 14.0358 3.66725 10C3.66725 5.96421 6.96409 2.66737 10.9999 2.66737C15.0357 2.66737 18.3325 5.96421 18.3325 10C18.3325 14.0358 15.0357 17.3326 10.9999 17.3326Z" fill="#1E2A36"/>
<path d="M11.001 11.1943C8.87886 11.1943 7.72307 12.6153 7.66623 12.6722C7.38202 13.0322 7.43886 13.5438 7.77991 13.828C8.13991 14.1122 8.65149 14.0743 8.95465 13.7143C8.99254 13.6764 9.6936 12.8616 11.001 12.8616C12.3083 12.8616 13.0094 13.6953 13.0283 13.7143C13.1989 13.9227 13.4262 14.0174 13.6725 14.0174C13.862 14.0174 14.0515 13.9606 14.2031 13.828C14.5631 13.5438 14.6199 13.0132 14.3357 12.6532C14.2789 12.6153 13.1231 11.1943 11.001 11.1943Z" fill="#1E2A36"/>
<path d="M7.97034 9.12854C8.61913 9.12854 9.14508 8.60259 9.14508 7.9538C9.14508 7.30501 8.61913 6.77907 7.97034 6.77907C7.32155 6.77907 6.7956 7.30501 6.7956 7.9538C6.7956 8.60259 7.32155 9.12854 7.97034 9.12854Z" fill="#1E2A36"/>
<path d="M14.0317 9.12854C14.6805 9.12854 15.2064 8.60259 15.2064 7.9538C15.2064 7.30501 14.6805 6.77907 14.0317 6.77907C13.3829 6.77907 12.857 7.30501 12.857 7.9538C12.857 8.60259 13.3829 9.12854 14.0317 9.12854Z" fill="#1E2A36"/>
</svg>
