<svg width="596" height="225" viewBox="0 0 596 225" fill="none" xmlns="http://www.w3.org/2000/svg">
<path d="M181.031 112.5C181.031 159.185 143.185 197.031 96.4998 197.031C49.8146 197.031 11.9688 159.185 11.9688 112.5C11.9688 65.8146 49.8146 27.9688 96.4998 27.9688C143.185 27.9688 181.031 65.8146 181.031 112.5ZM20.4219 112.5C20.4219 154.516 54.4831 188.578 96.4998 188.578C138.516 188.578 172.578 154.516 172.578 112.5C172.578 70.4831 138.516 36.4219 96.4998 36.4219C54.4831 36.4219 20.4219 70.4831 20.4219 112.5Z" fill="#E5E9EC"/>
<path d="M86.0602 32.8768C85.7567 30.5623 83.6318 28.9213 81.3354 29.3401C67.0616 31.9428 53.6724 38.1815 42.4766 47.4845C30.1952 57.6894 21.0555 71.1642 16.1156 86.3486C11.1757 101.533 10.6376 117.806 14.5637 133.284C18.4898 148.761 26.7195 162.811 38.2999 173.804C49.8802 184.798 64.3377 192.287 79.9983 195.404C95.6589 198.522 111.882 197.139 126.79 191.418C141.697 185.696 154.679 175.869 164.233 163.074C172.942 151.41 178.477 137.715 180.335 123.326C180.634 121.011 178.885 118.974 176.557 118.791C174.23 118.608 172.208 120.349 171.896 122.662C170.171 135.459 165.213 147.633 157.459 158.017C148.861 169.532 137.177 178.376 123.761 183.526C110.344 188.675 95.743 189.919 81.6484 187.114C67.5539 184.309 54.5422 177.568 44.1198 167.674C33.6975 157.779 26.2908 145.135 22.7573 131.205C19.2239 117.276 19.7081 102.63 24.154 88.9637C28.6 75.2977 36.8257 63.1704 47.8789 53.986C57.8464 45.7037 69.7456 40.12 82.4362 37.733C84.7303 37.3015 86.3637 35.1912 86.0602 32.8768Z" fill="#FF8C8C"/>
<path d="M86.0602 32.8768C85.7567 30.5623 83.6318 28.9213 81.3354 29.3401C69.4981 31.4986 58.2409 36.1629 48.3269 43.0385C37.2534 50.7182 28.1765 60.934 21.8531 72.8341C15.5296 84.7341 12.1429 97.9736 11.9753 111.448C11.8077 124.923 14.8641 138.243 20.8896 150.296C26.915 162.35 35.735 172.789 46.614 180.741C57.493 188.694 70.1156 193.931 83.4294 196.014C96.7431 198.098 110.362 196.968 123.151 192.72C134.6 188.916 145.087 182.71 153.918 174.537C155.631 172.952 155.594 170.267 153.924 168.635C152.255 167.004 149.587 167.044 147.865 168.62C139.983 175.834 130.656 181.319 120.486 184.698C108.976 188.521 96.7188 189.538 84.7364 187.663C72.754 185.787 61.3937 181.075 51.6026 173.917C41.8115 166.76 33.8735 157.365 28.4506 146.517C23.0276 135.668 20.2769 123.681 20.4277 111.554C20.5786 99.4262 23.6267 87.5107 29.3178 76.8006C35.0089 66.0906 43.1781 56.8963 53.1441 49.9847C61.9507 43.8771 71.9348 39.7083 82.4363 37.733C84.7303 37.3015 86.3637 35.1912 86.0602 32.8768Z" fill="#82ECC8"/>
<path d="M84.2617 86.92H81.4777V85.6H88.6057V86.92H85.8217V94H84.2617V86.92ZM91.8562 94.084C91.2082 94.084 90.6242 93.944 90.1042 93.664C89.5842 93.384 89.1762 92.996 88.8802 92.5C88.5922 91.996 88.4482 91.428 88.4482 90.796C88.4482 90.164 88.5922 89.6 88.8802 89.104C89.1762 88.608 89.5842 88.22 90.1042 87.94C90.6242 87.66 91.2082 87.52 91.8562 87.52C92.5122 87.52 93.1002 87.66 93.6202 87.94C94.1402 88.22 94.5442 88.608 94.8322 89.104C95.1282 89.6 95.2762 90.164 95.2762 90.796C95.2762 91.428 95.1282 91.996 94.8322 92.5C94.5442 92.996 94.1402 93.384 93.6202 93.664C93.1002 93.944 92.5122 94.084 91.8562 94.084ZM91.8562 92.8C92.4082 92.8 92.8642 92.616 93.2242 92.248C93.5842 91.88 93.7642 91.396 93.7642 90.796C93.7642 90.196 93.5842 89.712 93.2242 89.344C92.8642 88.976 92.4082 88.792 91.8562 88.792C91.3042 88.792 90.8482 88.976 90.4882 89.344C90.1362 89.712 89.9602 90.196 89.9602 90.796C89.9602 91.396 90.1362 91.88 90.4882 92.248C90.8482 92.616 91.3042 92.8 91.8562 92.8ZM100.563 93.652C100.387 93.796 100.171 93.904 99.9146 93.976C99.6666 94.048 99.4026 94.084 99.1226 94.084C98.4186 94.084 97.8746 93.9 97.4906 93.532C97.1066 93.164 96.9146 92.628 96.9146 91.924V88.84H95.8586V87.64H96.9146V86.176H98.4146V87.64H100.131V88.84H98.4146V91.888C98.4146 92.2 98.4906 92.44 98.6426 92.608C98.7946 92.768 99.0146 92.848 99.3026 92.848C99.6386 92.848 99.9186 92.76 100.143 92.584L100.563 93.652ZM104.245 87.52C105.189 87.52 105.909 87.748 106.405 88.204C106.909 88.652 107.161 89.332 107.161 90.244V94H105.745V93.22C105.561 93.5 105.297 93.716 104.953 93.868C104.617 94.012 104.209 94.084 103.729 94.084C103.249 94.084 102.829 94.004 102.469 93.844C102.109 93.676 101.829 93.448 101.629 93.16C101.437 92.864 101.341 92.532 101.341 92.164C101.341 91.588 101.553 91.128 101.977 90.784C102.409 90.432 103.085 90.256 104.005 90.256H105.661V90.16C105.661 89.712 105.525 89.368 105.253 89.128C104.989 88.888 104.593 88.768 104.065 88.768C103.705 88.768 103.349 88.824 102.997 88.936C102.653 89.048 102.361 89.204 102.121 89.404L101.533 88.312C101.869 88.056 102.273 87.86 102.745 87.724C103.217 87.588 103.717 87.52 104.245 87.52ZM104.041 92.992C104.417 92.992 104.749 92.908 105.037 92.74C105.333 92.564 105.541 92.316 105.661 91.996V91.252H104.113C103.249 91.252 102.817 91.536 102.817 92.104C102.817 92.376 102.925 92.592 103.141 92.752C103.357 92.912 103.657 92.992 104.041 92.992ZM109.086 85.096H110.586V94H109.086V85.096ZM69.2557 110.056H65.0557L64.2277 112H62.6197L66.3997 103.6H67.9357L71.7277 112H70.0957L69.2557 110.056ZM68.7397 108.832L67.1557 105.16L65.5837 108.832H68.7397ZM76.4454 111.652C76.2694 111.796 76.0534 111.904 75.7974 111.976C75.5494 112.048 75.2854 112.084 75.0054 112.084C74.3014 112.084 73.7574 111.9 73.3734 111.532C72.9894 111.164 72.7974 110.628 72.7974 109.924V106.84H71.7414V105.64H72.7974V104.176H74.2974V105.64H76.0134V106.84H74.2974V109.888C74.2974 110.2 74.3734 110.44 74.5254 110.608C74.6774 110.768 74.8974 110.848 75.1854 110.848C75.5214 110.848 75.8014 110.76 76.0254 110.584L76.4454 111.652ZM81.379 111.652C81.203 111.796 80.987 111.904 80.731 111.976C80.483 112.048 80.219 112.084 79.939 112.084C79.235 112.084 78.691 111.9 78.307 111.532C77.923 111.164 77.731 110.628 77.731 109.924V106.84H76.675V105.64H77.731V104.176H79.231V105.64H80.947V106.84H79.231V109.888C79.231 110.2 79.307 110.44 79.459 110.608C79.611 110.768 79.831 110.848 80.119 110.848C80.455 110.848 80.735 110.76 80.959 110.584L81.379 111.652ZM88.426 108.832C88.426 108.936 88.418 109.084 88.402 109.276H83.374C83.462 109.748 83.69 110.124 84.058 110.404C84.434 110.676 84.898 110.812 85.45 110.812C86.154 110.812 86.734 110.58 87.19 110.116L87.994 111.04C87.706 111.384 87.342 111.644 86.902 111.82C86.462 111.996 85.966 112.084 85.414 112.084C84.71 112.084 84.09 111.944 83.554 111.664C83.018 111.384 82.602 110.996 82.306 110.5C82.018 109.996 81.874 109.428 81.874 108.796C81.874 108.172 82.014 107.612 82.294 107.116C82.582 106.612 82.978 106.22 83.482 105.94C83.986 105.66 84.554 105.52 85.186 105.52C85.81 105.52 86.366 105.66 86.854 105.94C87.35 106.212 87.734 106.6 88.006 107.104C88.286 107.6 88.426 108.176 88.426 108.832ZM85.186 106.72C84.706 106.72 84.298 106.864 83.962 107.152C83.634 107.432 83.434 107.808 83.362 108.28H86.998C86.934 107.816 86.738 107.44 86.41 107.152C86.082 106.864 85.674 106.72 85.186 106.72ZM97.9548 105.52C98.7628 105.52 99.4028 105.756 99.8748 106.228C100.347 106.692 100.583 107.392 100.583 108.328V112H99.0828V108.52C99.0828 107.96 98.9588 107.54 98.7108 107.26C98.4628 106.972 98.1068 106.828 97.6428 106.828C97.1388 106.828 96.7348 106.996 96.4308 107.332C96.1268 107.66 95.9748 108.132 95.9748 108.748V112H94.4748V108.52C94.4748 107.96 94.3508 107.54 94.1028 107.26C93.8548 106.972 93.4988 106.828 93.0348 106.828C92.5228 106.828 92.1148 106.992 91.8108 107.32C91.5148 107.648 91.3668 108.124 91.3668 108.748V112H89.8668V105.592H91.2948V106.408C91.5348 106.12 91.8348 105.9 92.1948 105.748C92.5548 105.596 92.9548 105.52 93.3948 105.52C93.8748 105.52 94.2988 105.612 94.6668 105.796C95.0428 105.972 95.3388 106.236 95.5548 106.588C95.8188 106.252 96.1588 105.992 96.5748 105.808C96.9908 105.616 97.4508 105.52 97.9548 105.52ZM106.052 105.52C106.676 105.52 107.232 105.656 107.72 105.928C108.216 106.2 108.604 106.584 108.884 107.08C109.164 107.576 109.304 108.148 109.304 108.796C109.304 109.444 109.164 110.02 108.884 110.524C108.604 111.02 108.216 111.404 107.72 111.676C107.232 111.948 106.676 112.084 106.052 112.084C105.188 112.084 104.504 111.796 104 111.22V114.328H102.5V105.592H103.928V106.432C104.176 106.128 104.48 105.9 104.84 105.748C105.208 105.596 105.612 105.52 106.052 105.52ZM105.884 110.8C106.436 110.8 106.888 110.616 107.24 110.248C107.6 109.88 107.78 109.396 107.78 108.796C107.78 108.196 107.6 107.712 107.24 107.344C106.888 106.976 106.436 106.792 105.884 106.792C105.524 106.792 105.2 106.876 104.912 107.044C104.624 107.204 104.396 107.436 104.228 107.74C104.06 108.044 103.976 108.396 103.976 108.796C103.976 109.196 104.06 109.548 104.228 109.852C104.396 110.156 104.624 110.392 104.912 110.56C105.2 110.72 105.524 110.8 105.884 110.8ZM114.578 111.652C114.402 111.796 114.186 111.904 113.93 111.976C113.682 112.048 113.418 112.084 113.138 112.084C112.434 112.084 111.89 111.9 111.506 111.532C111.122 111.164 110.93 110.628 110.93 109.924V106.84H109.874V105.64H110.93V104.176H112.43V105.64H114.146V106.84H112.43V109.888C112.43 110.2 112.506 110.44 112.658 110.608C112.81 110.768 113.03 110.848 113.318 110.848C113.654 110.848 113.934 110.76 114.158 110.584L114.578 111.652ZM121.625 108.832C121.625 108.936 121.617 109.084 121.601 109.276H116.573C116.661 109.748 116.889 110.124 117.257 110.404C117.633 110.676 118.097 110.812 118.649 110.812C119.353 110.812 119.933 110.58 120.389 110.116L121.193 111.04C120.905 111.384 120.541 111.644 120.101 111.82C119.661 111.996 119.165 112.084 118.613 112.084C117.909 112.084 117.289 111.944 116.753 111.664C116.217 111.384 115.801 110.996 115.505 110.5C115.217 109.996 115.073 109.428 115.073 108.796C115.073 108.172 115.213 107.612 115.493 107.116C115.781 106.612 116.177 106.22 116.681 105.94C117.185 105.66 117.753 105.52 118.385 105.52C119.009 105.52 119.565 105.66 120.053 105.94C120.549 106.212 120.933 106.6 121.205 107.104C121.485 107.6 121.625 108.176 121.625 108.832ZM118.385 106.72C117.905 106.72 117.497 106.864 117.161 107.152C116.833 107.432 116.633 107.808 116.561 108.28H120.197C120.133 107.816 119.937 107.44 119.609 107.152C119.281 106.864 118.873 106.72 118.385 106.72ZM129.342 103.096V112H127.902V111.172C127.654 111.476 127.346 111.704 126.978 111.856C126.618 112.008 126.218 112.084 125.778 112.084C125.162 112.084 124.606 111.948 124.11 111.676C123.622 111.404 123.238 111.02 122.958 110.524C122.678 110.02 122.538 109.444 122.538 108.796C122.538 108.148 122.678 107.576 122.958 107.08C123.238 106.584 123.622 106.2 124.11 105.928C124.606 105.656 125.162 105.52 125.778 105.52C126.202 105.52 126.59 105.592 126.942 105.736C127.294 105.88 127.594 106.096 127.842 106.384V103.096H129.342ZM125.958 110.8C126.318 110.8 126.642 110.72 126.93 110.56C127.218 110.392 127.446 110.156 127.614 109.852C127.782 109.548 127.866 109.196 127.866 108.796C127.866 108.396 127.782 108.044 127.614 107.74C127.446 107.436 127.218 107.204 126.93 107.044C126.642 106.876 126.318 106.792 125.958 106.792C125.598 106.792 125.274 106.876 124.986 107.044C124.698 107.204 124.47 107.436 124.302 107.74C124.134 108.044 124.05 108.396 124.05 108.796C124.05 109.196 124.134 109.548 124.302 109.852C124.47 110.156 124.698 110.392 124.986 110.56C125.274 110.72 125.598 110.8 125.958 110.8Z" fill="#556575"/>
<path d="M97.012 134.248H94.884V137H93.332V134.248H87.108V133.128L92.836 125.8H94.564L89.076 132.872H93.38V130.44H94.884V132.872H97.012V134.248ZM101.124 130.264C102.724 130.264 103.898 130.568 104.644 131.176C105.402 131.773 105.78 132.595 105.78 133.64C105.78 134.301 105.62 134.899 105.3 135.432C104.991 135.955 104.516 136.371 103.876 136.68C103.247 136.979 102.468 137.128 101.54 137.128C100.751 137.128 99.9883 137.011 99.2523 136.776C98.5163 136.531 97.9083 136.195 97.4283 135.768L98.1643 134.504C98.5483 134.867 99.0389 135.16 99.6363 135.384C100.234 135.597 100.863 135.704 101.524 135.704C102.367 135.704 103.018 135.528 103.476 135.176C103.946 134.813 104.18 134.323 104.18 133.704C104.18 133.032 103.924 132.525 103.412 132.184C102.9 131.832 102.026 131.656 100.788 131.656H98.2443L98.8363 125.8H105.156V127.192H100.18L99.8763 130.264H101.124Z" fill="#1E2A36"/>
<rect x="241" y="89.5" width="16" height="16" rx="8" fill="#82EBC7"/>
<path d="M270.016 102.62C269.168 102.62 268.4 102.436 267.712 102.068C267.032 101.692 266.496 101.176 266.104 100.52C265.72 99.864 265.528 99.124 265.528 98.3C265.528 97.476 265.724 96.736 266.116 96.08C266.508 95.424 267.044 94.912 267.724 94.544C268.412 94.168 269.18 93.98 270.028 93.98C270.716 93.98 271.344 94.1 271.912 94.34C272.48 94.58 272.96 94.928 273.352 95.384L272.344 96.332C271.736 95.676 270.988 95.348 270.1 95.348C269.524 95.348 269.008 95.476 268.552 95.732C268.096 95.98 267.74 96.328 267.484 96.776C267.228 97.224 267.1 97.732 267.1 98.3C267.1 98.868 267.228 99.376 267.484 99.824C267.74 100.272 268.096 100.624 268.552 100.88C269.008 101.128 269.524 101.252 270.1 101.252C270.988 101.252 271.736 100.92 272.344 100.256L273.352 101.216C272.96 101.672 272.476 102.02 271.9 102.26C271.332 102.5 270.704 102.62 270.016 102.62ZM277.348 102.584C276.7 102.584 276.116 102.444 275.596 102.164C275.076 101.884 274.668 101.496 274.372 101C274.084 100.496 273.94 99.928 273.94 99.296C273.94 98.664 274.084 98.1 274.372 97.604C274.668 97.108 275.076 96.72 275.596 96.44C276.116 96.16 276.7 96.02 277.348 96.02C278.004 96.02 278.592 96.16 279.112 96.44C279.632 96.72 280.036 97.108 280.324 97.604C280.62 98.1 280.768 98.664 280.768 99.296C280.768 99.928 280.62 100.496 280.324 101C280.036 101.496 279.632 101.884 279.112 102.164C278.592 102.444 278.004 102.584 277.348 102.584ZM277.348 101.3C277.9 101.3 278.356 101.116 278.716 100.748C279.076 100.38 279.256 99.896 279.256 99.296C279.256 98.696 279.076 98.212 278.716 97.844C278.356 97.476 277.9 97.292 277.348 97.292C276.796 97.292 276.34 97.476 275.98 97.844C275.628 98.212 275.452 98.696 275.452 99.296C275.452 99.896 275.628 100.38 275.98 100.748C276.34 101.116 276.796 101.3 277.348 101.3ZM283.631 97.028C284.063 96.356 284.823 96.02 285.911 96.02V97.448C285.783 97.424 285.667 97.412 285.563 97.412C284.979 97.412 284.523 97.584 284.195 97.928C283.867 98.264 283.703 98.752 283.703 99.392V102.5H282.203V96.092H283.631V97.028ZM288.611 97.028C289.043 96.356 289.803 96.02 290.891 96.02V97.448C290.763 97.424 290.647 97.412 290.543 97.412C289.959 97.412 289.503 97.584 289.175 97.928C288.847 98.264 288.683 98.752 288.683 99.392V102.5H287.183V96.092H288.611V97.028ZM298.129 99.332C298.129 99.436 298.121 99.584 298.105 99.776H293.077C293.165 100.248 293.393 100.624 293.761 100.904C294.137 101.176 294.601 101.312 295.153 101.312C295.857 101.312 296.437 101.08 296.893 100.616L297.697 101.54C297.409 101.884 297.045 102.144 296.605 102.32C296.165 102.496 295.669 102.584 295.117 102.584C294.413 102.584 293.793 102.444 293.257 102.164C292.721 101.884 292.305 101.496 292.009 101C291.721 100.496 291.577 99.928 291.577 99.296C291.577 98.672 291.717 98.112 291.997 97.616C292.285 97.112 292.681 96.72 293.185 96.44C293.689 96.16 294.257 96.02 294.889 96.02C295.513 96.02 296.069 96.16 296.557 96.44C297.053 96.712 297.437 97.1 297.709 97.604C297.989 98.1 298.129 98.676 298.129 99.332ZM294.889 97.22C294.409 97.22 294.001 97.364 293.665 97.652C293.337 97.932 293.137 98.308 293.065 98.78H296.701C296.637 98.316 296.441 97.94 296.113 97.652C295.785 97.364 295.377 97.22 294.889 97.22ZM302.51 102.584C301.846 102.584 301.25 102.444 300.722 102.164C300.194 101.884 299.782 101.496 299.486 101C299.19 100.496 299.042 99.928 299.042 99.296C299.042 98.664 299.19 98.1 299.486 97.604C299.782 97.108 300.19 96.72 300.71 96.44C301.238 96.16 301.838 96.02 302.51 96.02C303.142 96.02 303.694 96.148 304.166 96.404C304.646 96.66 305.006 97.028 305.246 97.508L304.094 98.18C303.91 97.884 303.678 97.664 303.398 97.52C303.126 97.368 302.826 97.292 302.498 97.292C301.938 97.292 301.474 97.476 301.106 97.844C300.738 98.204 300.554 98.688 300.554 99.296C300.554 99.904 300.734 100.392 301.094 100.76C301.462 101.12 301.93 101.3 302.498 101.3C302.826 101.3 303.126 101.228 303.398 101.084C303.678 100.932 303.91 100.708 304.094 100.412L305.246 101.084C304.998 101.564 304.634 101.936 304.154 102.2C303.682 102.456 303.134 102.584 302.51 102.584ZM310.477 102.152C310.301 102.296 310.085 102.404 309.829 102.476C309.581 102.548 309.317 102.584 309.037 102.584C308.333 102.584 307.789 102.4 307.405 102.032C307.021 101.664 306.829 101.128 306.829 100.424V97.34H305.773V96.14H306.829V94.676H308.329V96.14H310.045V97.34H308.329V100.388C308.329 100.7 308.405 100.94 308.557 101.108C308.709 101.268 308.929 101.348 309.217 101.348C309.553 101.348 309.833 101.26 310.057 101.084L310.477 102.152Z" fill="#556575"/>
<path d="M269.24 118.3V129.5H267.656V119.692H265.128V118.3H269.24ZM275.162 118.3V129.5H273.578V119.692H271.05V118.3H275.162Z" fill="#1E2A36"/>
<rect x="359" y="89.5" width="16" height="16" rx="8" fill="#FF8C8C"/>
<path d="M384.128 94.1H385.688V102.5H384.128V94.1ZM391.452 96.02C392.26 96.02 392.908 96.256 393.396 96.728C393.884 97.2 394.128 97.9 394.128 98.828V102.5H392.628V99.02C392.628 98.46 392.496 98.04 392.232 97.76C391.968 97.472 391.592 97.328 391.104 97.328C390.552 97.328 390.116 97.496 389.796 97.832C389.476 98.16 389.316 98.636 389.316 99.26V102.5H387.816V96.092H389.244V96.92C389.492 96.624 389.804 96.4 390.18 96.248C390.556 96.096 390.98 96.02 391.452 96.02ZM399.029 102.584C398.365 102.584 397.769 102.444 397.241 102.164C396.713 101.884 396.301 101.496 396.005 101C395.709 100.496 395.561 99.928 395.561 99.296C395.561 98.664 395.709 98.1 396.005 97.604C396.301 97.108 396.709 96.72 397.229 96.44C397.757 96.16 398.357 96.02 399.029 96.02C399.661 96.02 400.213 96.148 400.685 96.404C401.165 96.66 401.525 97.028 401.765 97.508L400.613 98.18C400.429 97.884 400.197 97.664 399.917 97.52C399.645 97.368 399.345 97.292 399.017 97.292C398.457 97.292 397.993 97.476 397.625 97.844C397.257 98.204 397.073 98.688 397.073 99.296C397.073 99.904 397.253 100.392 397.613 100.76C397.981 101.12 398.449 101.3 399.017 101.3C399.345 101.3 399.645 101.228 399.917 101.084C400.197 100.932 400.429 100.708 400.613 100.412L401.765 101.084C401.517 101.564 401.153 101.936 400.673 102.2C400.201 102.456 399.653 102.584 399.029 102.584ZM405.848 102.584C405.2 102.584 404.616 102.444 404.096 102.164C403.576 101.884 403.168 101.496 402.872 101C402.584 100.496 402.44 99.928 402.44 99.296C402.44 98.664 402.584 98.1 402.872 97.604C403.168 97.108 403.576 96.72 404.096 96.44C404.616 96.16 405.2 96.02 405.848 96.02C406.504 96.02 407.092 96.16 407.612 96.44C408.132 96.72 408.536 97.108 408.824 97.604C409.12 98.1 409.268 98.664 409.268 99.296C409.268 99.928 409.12 100.496 408.824 101C408.536 101.496 408.132 101.884 407.612 102.164C407.092 102.444 406.504 102.584 405.848 102.584ZM405.848 101.3C406.4 101.3 406.856 101.116 407.216 100.748C407.576 100.38 407.756 99.896 407.756 99.296C407.756 98.696 407.576 98.212 407.216 97.844C406.856 97.476 406.4 97.292 405.848 97.292C405.296 97.292 404.84 97.476 404.48 97.844C404.128 98.212 403.952 98.696 403.952 99.296C403.952 99.896 404.128 100.38 404.48 100.748C404.84 101.116 405.296 101.3 405.848 101.3ZM412.131 97.028C412.563 96.356 413.323 96.02 414.411 96.02V97.448C414.283 97.424 414.167 97.412 414.063 97.412C413.479 97.412 413.023 97.584 412.695 97.928C412.367 98.264 412.203 98.752 412.203 99.392V102.5H410.703V96.092H412.131V97.028ZM417.111 97.028C417.543 96.356 418.303 96.02 419.391 96.02V97.448C419.263 97.424 419.147 97.412 419.043 97.412C418.459 97.412 418.003 97.584 417.675 97.928C417.347 98.264 417.183 98.752 417.183 99.392V102.5H415.683V96.092H417.111V97.028ZM426.629 99.332C426.629 99.436 426.621 99.584 426.605 99.776H421.577C421.665 100.248 421.893 100.624 422.261 100.904C422.637 101.176 423.101 101.312 423.653 101.312C424.357 101.312 424.937 101.08 425.393 100.616L426.197 101.54C425.909 101.884 425.545 102.144 425.105 102.32C424.665 102.496 424.169 102.584 423.617 102.584C422.913 102.584 422.293 102.444 421.757 102.164C421.221 101.884 420.805 101.496 420.509 101C420.221 100.496 420.077 99.928 420.077 99.296C420.077 98.672 420.217 98.112 420.497 97.616C420.785 97.112 421.181 96.72 421.685 96.44C422.189 96.16 422.757 96.02 423.389 96.02C424.013 96.02 424.569 96.16 425.057 96.44C425.553 96.712 425.937 97.1 426.209 97.604C426.489 98.1 426.629 98.676 426.629 99.332ZM423.389 97.22C422.909 97.22 422.501 97.364 422.165 97.652C421.837 97.932 421.637 98.308 421.565 98.78H425.201C425.137 98.316 424.941 97.94 424.613 97.652C424.285 97.364 423.877 97.22 423.389 97.22ZM431.01 102.584C430.346 102.584 429.75 102.444 429.222 102.164C428.694 101.884 428.282 101.496 427.986 101C427.69 100.496 427.542 99.928 427.542 99.296C427.542 98.664 427.69 98.1 427.986 97.604C428.282 97.108 428.69 96.72 429.21 96.44C429.738 96.16 430.338 96.02 431.01 96.02C431.642 96.02 432.194 96.148 432.666 96.404C433.146 96.66 433.506 97.028 433.746 97.508L432.594 98.18C432.41 97.884 432.178 97.664 431.898 97.52C431.626 97.368 431.326 97.292 430.998 97.292C430.438 97.292 429.974 97.476 429.606 97.844C429.238 98.204 429.054 98.688 429.054 99.296C429.054 99.904 429.234 100.392 429.594 100.76C429.962 101.12 430.43 101.3 430.998 101.3C431.326 101.3 431.626 101.228 431.898 101.084C432.178 100.932 432.41 100.708 432.594 100.412L433.746 101.084C433.498 101.564 433.134 101.936 432.654 102.2C432.182 102.456 431.634 102.584 431.01 102.584ZM438.977 102.152C438.801 102.296 438.585 102.404 438.329 102.476C438.081 102.548 437.817 102.584 437.537 102.584C436.833 102.584 436.289 102.4 435.905 102.032C435.521 101.664 435.329 101.128 435.329 100.424V97.34H434.273V96.14H435.329V94.676H436.829V96.14H438.545V97.34H436.829V100.388C436.829 100.7 436.905 100.94 437.057 101.108C437.209 101.268 437.429 101.348 437.717 101.348C438.053 101.348 438.333 101.26 438.557 101.084L438.977 102.152Z" fill="#556575"/>
<path d="M388.056 123.004C389.155 123.111 389.992 123.452 390.568 124.028C391.144 124.593 391.432 125.319 391.432 126.204C391.432 126.844 391.272 127.425 390.952 127.948C390.632 128.46 390.152 128.871 389.512 129.18C388.883 129.479 388.109 129.628 387.192 129.628C386.392 129.628 385.624 129.511 384.888 129.276C384.152 129.031 383.549 128.695 383.08 128.268L383.816 127.004C384.2 127.367 384.691 127.66 385.288 127.884C385.885 128.097 386.52 128.204 387.192 128.204C388.024 128.204 388.669 128.028 389.128 127.676C389.597 127.324 389.832 126.839 389.832 126.22C389.832 125.601 389.603 125.121 389.144 124.78C388.685 124.439 387.992 124.268 387.064 124.268H386.168V123.148L388.984 119.692H383.592V118.3H390.984V119.388L388.056 123.004Z" fill="#1E2A36"/>
<rect x="488" y="89.5" width="16" height="16" rx="8" fill="#E5E9EC"/>
<path d="M516.74 102.62C515.58 102.62 514.676 102.296 514.028 101.648C513.38 100.992 513.056 100.056 513.056 98.84V94.1H514.616V98.78C514.616 100.428 515.328 101.252 516.752 101.252C518.168 101.252 518.876 100.428 518.876 98.78V94.1H520.412V98.84C520.412 100.056 520.088 100.992 519.44 101.648C518.8 102.296 517.9 102.62 516.74 102.62ZM526.089 96.02C526.897 96.02 527.545 96.256 528.033 96.728C528.521 97.2 528.765 97.9 528.765 98.828V102.5H527.265V99.02C527.265 98.46 527.133 98.04 526.869 97.76C526.605 97.472 526.229 97.328 525.741 97.328C525.189 97.328 524.753 97.496 524.433 97.832C524.113 98.16 523.953 98.636 523.953 99.26V102.5H522.453V96.092H523.881V96.92C524.129 96.624 524.441 96.4 524.817 96.248C525.193 96.096 525.617 96.02 526.089 96.02ZM533.116 96.02C534.06 96.02 534.78 96.248 535.276 96.704C535.78 97.152 536.032 97.832 536.032 98.744V102.5H534.616V101.72C534.432 102 534.168 102.216 533.824 102.368C533.488 102.512 533.08 102.584 532.6 102.584C532.12 102.584 531.7 102.504 531.34 102.344C530.98 102.176 530.7 101.948 530.5 101.66C530.308 101.364 530.212 101.032 530.212 100.664C530.212 100.088 530.424 99.628 530.848 99.284C531.28 98.932 531.956 98.756 532.876 98.756H534.532V98.66C534.532 98.212 534.396 97.868 534.124 97.628C533.86 97.388 533.464 97.268 532.936 97.268C532.576 97.268 532.22 97.324 531.868 97.436C531.524 97.548 531.232 97.704 530.992 97.904L530.404 96.812C530.74 96.556 531.144 96.36 531.616 96.224C532.088 96.088 532.588 96.02 533.116 96.02ZM532.912 101.492C533.288 101.492 533.62 101.408 533.908 101.24C534.204 101.064 534.412 100.816 534.532 100.496V99.752H532.984C532.12 99.752 531.688 100.036 531.688 100.604C531.688 100.876 531.796 101.092 532.012 101.252C532.228 101.412 532.528 101.492 532.912 101.492ZM541.809 102.152C541.633 102.296 541.417 102.404 541.161 102.476C540.913 102.548 540.649 102.584 540.369 102.584C539.665 102.584 539.121 102.4 538.737 102.032C538.353 101.664 538.161 101.128 538.161 100.424V97.34H537.105V96.14H538.161V94.676H539.661V96.14H541.377V97.34H539.661V100.388C539.661 100.7 539.737 100.94 539.889 101.108C540.041 101.268 540.261 101.348 540.549 101.348C540.885 101.348 541.165 101.26 541.389 101.084L541.809 102.152ZM546.742 102.152C546.566 102.296 546.35 102.404 546.094 102.476C545.846 102.548 545.582 102.584 545.302 102.584C544.598 102.584 544.054 102.4 543.67 102.032C543.286 101.664 543.094 101.128 543.094 100.424V97.34H542.038V96.14H543.094V94.676H544.594V96.14H546.31V97.34H544.594V100.388C544.594 100.7 544.67 100.94 544.822 101.108C544.974 101.268 545.194 101.348 545.482 101.348C545.818 101.348 546.098 101.26 546.322 101.084L546.742 102.152ZM553.789 99.332C553.789 99.436 553.781 99.584 553.765 99.776H548.737C548.825 100.248 549.053 100.624 549.421 100.904C549.797 101.176 550.261 101.312 550.813 101.312C551.517 101.312 552.097 101.08 552.553 100.616L553.357 101.54C553.069 101.884 552.705 102.144 552.265 102.32C551.825 102.496 551.329 102.584 550.777 102.584C550.073 102.584 549.453 102.444 548.917 102.164C548.381 101.884 547.965 101.496 547.669 101C547.381 100.496 547.237 99.928 547.237 99.296C547.237 98.672 547.377 98.112 547.657 97.616C547.945 97.112 548.341 96.72 548.845 96.44C549.349 96.16 549.917 96.02 550.549 96.02C551.173 96.02 551.729 96.16 552.217 96.44C552.713 96.712 553.097 97.1 553.369 97.604C553.649 98.1 553.789 98.676 553.789 99.332ZM550.549 97.22C550.069 97.22 549.661 97.364 549.325 97.652C548.997 97.932 548.797 98.308 548.725 98.78H552.361C552.297 98.316 552.101 97.94 551.773 97.652C551.445 97.364 551.037 97.22 550.549 97.22ZM563.318 96.02C564.126 96.02 564.766 96.256 565.238 96.728C565.71 97.192 565.946 97.892 565.946 98.828V102.5H564.446V99.02C564.446 98.46 564.322 98.04 564.074 97.76C563.826 97.472 563.47 97.328 563.006 97.328C562.502 97.328 562.098 97.496 561.794 97.832C561.49 98.16 561.338 98.632 561.338 99.248V102.5H559.838V99.02C559.838 98.46 559.714 98.04 559.466 97.76C559.218 97.472 558.862 97.328 558.398 97.328C557.886 97.328 557.478 97.492 557.174 97.82C556.878 98.148 556.73 98.624 556.73 99.248V102.5H555.23V96.092H556.658V96.908C556.898 96.62 557.198 96.4 557.558 96.248C557.918 96.096 558.318 96.02 558.758 96.02C559.238 96.02 559.662 96.112 560.03 96.296C560.406 96.472 560.702 96.736 560.918 97.088C561.182 96.752 561.522 96.492 561.938 96.308C562.354 96.116 562.814 96.02 563.318 96.02ZM571.415 96.02C572.039 96.02 572.595 96.156 573.083 96.428C573.579 96.7 573.967 97.084 574.247 97.58C574.527 98.076 574.667 98.648 574.667 99.296C574.667 99.944 574.527 100.52 574.247 101.024C573.967 101.52 573.579 101.904 573.083 102.176C572.595 102.448 572.039 102.584 571.415 102.584C570.551 102.584 569.867 102.296 569.363 101.72V104.828H567.863V96.092H569.291V96.932C569.539 96.628 569.843 96.4 570.203 96.248C570.571 96.096 570.975 96.02 571.415 96.02ZM571.247 101.3C571.799 101.3 572.251 101.116 572.603 100.748C572.963 100.38 573.143 99.896 573.143 99.296C573.143 98.696 572.963 98.212 572.603 97.844C572.251 97.476 571.799 97.292 571.247 97.292C570.887 97.292 570.563 97.376 570.275 97.544C569.987 97.704 569.759 97.936 569.591 98.24C569.423 98.544 569.339 98.896 569.339 99.296C569.339 99.696 569.423 100.048 569.591 100.352C569.759 100.656 569.987 100.892 570.275 101.06C570.563 101.22 570.887 101.3 571.247 101.3ZM579.941 102.152C579.765 102.296 579.549 102.404 579.293 102.476C579.045 102.548 578.781 102.584 578.501 102.584C577.797 102.584 577.253 102.4 576.869 102.032C576.485 101.664 576.293 101.128 576.293 100.424V97.34H575.237V96.14H576.293V94.676H577.793V96.14H579.509V97.34H577.793V100.388C577.793 100.7 577.869 100.94 578.021 101.108C578.173 101.268 578.393 101.348 578.681 101.348C579.017 101.348 579.297 101.26 579.521 101.084L579.941 102.152ZM586.988 99.332C586.988 99.436 586.98 99.584 586.964 99.776H581.936C582.024 100.248 582.252 100.624 582.62 100.904C582.996 101.176 583.46 101.312 584.012 101.312C584.716 101.312 585.296 101.08 585.752 100.616L586.556 101.54C586.268 101.884 585.904 102.144 585.464 102.32C585.024 102.496 584.528 102.584 583.976 102.584C583.272 102.584 582.652 102.444 582.116 102.164C581.58 101.884 581.164 101.496 580.868 101C580.58 100.496 580.436 99.928 580.436 99.296C580.436 98.672 580.576 98.112 580.856 97.616C581.144 97.112 581.54 96.72 582.044 96.44C582.548 96.16 583.116 96.02 583.748 96.02C584.372 96.02 584.928 96.16 585.416 96.44C585.912 96.712 586.296 97.1 586.568 97.604C586.848 98.1 586.988 98.676 586.988 99.332ZM583.748 97.22C583.268 97.22 582.86 97.364 582.524 97.652C582.196 97.932 581.996 98.308 581.924 98.78H585.56C585.496 98.316 585.3 97.94 584.972 97.652C584.644 97.364 584.236 97.22 583.748 97.22ZM594.705 93.596V102.5H593.265V101.672C593.017 101.976 592.709 102.204 592.341 102.356C591.981 102.508 591.581 102.584 591.141 102.584C590.525 102.584 589.969 102.448 589.473 102.176C588.985 101.904 588.601 101.52 588.321 101.024C588.041 100.52 587.901 99.944 587.901 99.296C587.901 98.648 588.041 98.076 588.321 97.58C588.601 97.084 588.985 96.7 589.473 96.428C589.969 96.156 590.525 96.02 591.141 96.02C591.565 96.02 591.953 96.092 592.305 96.236C592.657 96.38 592.957 96.596 593.205 96.884V93.596H594.705ZM591.321 101.3C591.681 101.3 592.005 101.22 592.293 101.06C592.581 100.892 592.809 100.656 592.977 100.352C593.145 100.048 593.229 99.696 593.229 99.296C593.229 98.896 593.145 98.544 592.977 98.24C592.809 97.936 592.581 97.704 592.293 97.544C592.005 97.376 591.681 97.292 591.321 97.292C590.961 97.292 590.637 97.376 590.349 97.544C590.061 97.704 589.833 97.936 589.665 98.24C589.497 98.544 589.413 98.896 589.413 99.296C589.413 99.696 589.497 100.048 589.665 100.352C589.833 100.656 590.061 100.892 590.349 101.06C590.637 101.22 590.961 101.3 591.321 101.3Z" fill="#556575"/>
<path d="M520.64 128.108V129.5H512.592V128.412L517.152 124.012C517.707 123.479 518.08 123.02 518.272 122.636C518.464 122.241 518.56 121.847 518.56 121.452C518.56 120.865 518.352 120.412 517.936 120.092C517.531 119.761 516.944 119.596 516.176 119.596C514.939 119.596 513.984 120.001 513.312 120.812L512.224 119.868C512.661 119.335 513.232 118.919 513.936 118.62C514.651 118.321 515.445 118.172 516.32 118.172C517.493 118.172 518.427 118.455 519.12 119.02C519.813 119.575 520.16 120.332 520.16 121.292C520.16 121.889 520.032 122.455 519.776 122.988C519.52 123.521 519.035 124.129 518.32 124.812L514.896 128.108H520.64Z" fill="#1E2A36"/>
</svg>
