<svg width="327" height="202" viewBox="0 0 327 202" fill="none" xmlns="http://www.w3.org/2000/svg">
<path d="M71.2874 67.24H68.0394V65.7H76.3554V67.24H73.1074V75.5H71.2874V67.24ZM80.1476 75.598C79.3916 75.598 78.7103 75.4347 78.1036 75.108C77.497 74.7813 77.021 74.3287 76.6756 73.75C76.3396 73.162 76.1716 72.4993 76.1716 71.762C76.1716 71.0247 76.3396 70.3667 76.6756 69.788C77.021 69.2093 77.497 68.7567 78.1036 68.43C78.7103 68.1033 79.3916 67.94 80.1476 67.94C80.913 67.94 81.599 68.1033 82.2056 68.43C82.8123 68.7567 83.2836 69.2093 83.6196 69.788C83.965 70.3667 84.1376 71.0247 84.1376 71.762C84.1376 72.4993 83.965 73.162 83.6196 73.75C83.2836 74.3287 82.8123 74.7813 82.2056 75.108C81.599 75.4347 80.913 75.598 80.1476 75.598ZM80.1476 74.1C80.7916 74.1 81.3236 73.8853 81.7436 73.456C82.1636 73.0267 82.3736 72.462 82.3736 71.762C82.3736 71.062 82.1636 70.4973 81.7436 70.068C81.3236 69.6387 80.7916 69.424 80.1476 69.424C79.5036 69.424 78.9716 69.6387 78.5516 70.068C78.141 70.4973 77.9356 71.062 77.9356 71.762C77.9356 72.462 78.141 73.0267 78.5516 73.456C78.9716 73.8853 79.5036 74.1 80.1476 74.1ZM90.3051 75.094C90.0998 75.262 89.8478 75.388 89.5491 75.472C89.2598 75.556 88.9518 75.598 88.6251 75.598C87.8038 75.598 87.1691 75.3833 86.7211 74.954C86.2731 74.5247 86.0491 73.8993 86.0491 73.078V69.48H84.8171V68.08H86.0491V66.372H87.7991V68.08H89.8011V69.48H87.7991V73.036C87.7991 73.4 87.8878 73.68 88.0651 73.876C88.2424 74.0627 88.4991 74.156 88.8351 74.156C89.2271 74.156 89.5538 74.0533 89.8151 73.848L90.3051 75.094ZM94.6007 67.94C95.702 67.94 96.542 68.206 97.1207 68.738C97.7087 69.2607 98.0027 70.054 98.0027 71.118V75.5H96.3507V74.59C96.136 74.9167 95.828 75.1687 95.4267 75.346C95.0347 75.514 94.5587 75.598 93.9987 75.598C93.4387 75.598 92.9487 75.5047 92.5287 75.318C92.1087 75.122 91.782 74.856 91.5487 74.52C91.3247 74.1747 91.2127 73.7873 91.2127 73.358C91.2127 72.686 91.46 72.1493 91.9547 71.748C92.4587 71.3373 93.2473 71.132 94.3207 71.132H96.2527V71.02C96.2527 70.4973 96.094 70.096 95.7767 69.816C95.4687 69.536 95.0067 69.396 94.3907 69.396C93.9707 69.396 93.5553 69.4613 93.1447 69.592C92.7433 69.7227 92.4027 69.9047 92.1227 70.138L91.4367 68.864C91.8287 68.5653 92.3 68.3367 92.8507 68.178C93.4013 68.0193 93.9847 67.94 94.6007 67.94ZM94.3627 74.324C94.8013 74.324 95.1887 74.226 95.5247 74.03C95.87 73.8247 96.1127 73.5353 96.2527 73.162V72.294H94.4467C93.4387 72.294 92.9347 72.6253 92.9347 73.288C92.9347 73.6053 93.0607 73.8573 93.3127 74.044C93.5647 74.2307 93.9147 74.324 94.3627 74.324ZM100.249 65.112H101.999V75.5H100.249V65.112ZM55.715 94.232H50.815L49.849 96.5H47.973L52.383 86.7H54.175L58.599 96.5H56.695L55.715 94.232ZM55.113 92.804L53.265 88.52L51.431 92.804H55.113ZM64.1029 96.094C63.8976 96.262 63.6456 96.388 63.3469 96.472C63.0576 96.556 62.7496 96.598 62.4229 96.598C61.6016 96.598 60.9669 96.3833 60.5189 95.954C60.0709 95.5247 59.8469 94.8993 59.8469 94.078V90.48H58.6149V89.08H59.8469V87.372H61.5969V89.08H63.5989V90.48H61.5969V94.036C61.5969 94.4 61.6856 94.68 61.8629 94.876C62.0403 95.0627 62.2969 95.156 62.6329 95.156C63.0249 95.156 63.3516 95.0533 63.6129 94.848L64.1029 96.094ZM69.8588 96.094C69.6535 96.262 69.4015 96.388 69.1028 96.472C68.8135 96.556 68.5055 96.598 68.1788 96.598C67.3575 96.598 66.7228 96.3833 66.2748 95.954C65.8268 95.5247 65.6028 94.8993 65.6028 94.078V90.48H64.3708V89.08H65.6028V87.372H67.3528V89.08H69.3548V90.48H67.3528V94.036C67.3528 94.4 67.4415 94.68 67.6188 94.876C67.7961 95.0627 68.0528 95.156 68.3888 95.156C68.7808 95.156 69.1075 95.0533 69.3688 94.848L69.8588 96.094ZM78.0803 92.804C78.0803 92.9253 78.071 93.098 78.0523 93.322H72.1863C72.289 93.8727 72.555 94.3113 72.9843 94.638C73.423 94.9553 73.9643 95.114 74.6083 95.114C75.4296 95.114 76.1063 94.8433 76.6383 94.302L77.5763 95.38C77.2403 95.7813 76.8156 96.0847 76.3023 96.29C75.789 96.4953 75.2103 96.598 74.5663 96.598C73.745 96.598 73.0216 96.4347 72.3963 96.108C71.771 95.7813 71.2856 95.3287 70.9403 94.75C70.6043 94.162 70.4363 93.4993 70.4363 92.762C70.4363 92.034 70.5996 91.3807 70.9263 90.802C71.2623 90.214 71.7243 89.7567 72.3123 89.43C72.9003 89.1033 73.563 88.94 74.3003 88.94C75.0283 88.94 75.677 89.1033 76.2463 89.43C76.825 89.7473 77.273 90.2 77.5903 90.788C77.917 91.3667 78.0803 92.0387 78.0803 92.804ZM74.3003 90.34C73.7403 90.34 73.2643 90.508 72.8723 90.844C72.4896 91.1707 72.2563 91.6093 72.1723 92.16H76.4143C76.3396 91.6187 76.111 91.18 75.7283 90.844C75.3456 90.508 74.8696 90.34 74.3003 90.34ZM89.1973 88.94C90.1399 88.94 90.8866 89.2153 91.4373 89.766C91.9879 90.3073 92.2633 91.124 92.2633 92.216V96.5H90.5133V92.44C90.5133 91.7867 90.3686 91.2967 90.0793 90.97C89.7899 90.634 89.3746 90.466 88.8333 90.466C88.2453 90.466 87.7739 90.662 87.4193 91.054C87.0646 91.4367 86.8873 91.9873 86.8873 92.706V96.5H85.1373V92.44C85.1373 91.7867 84.9926 91.2967 84.7033 90.97C84.4139 90.634 83.9986 90.466 83.4573 90.466C82.8599 90.466 82.3839 90.6573 82.0293 91.04C81.6839 91.4227 81.5113 91.978 81.5113 92.706V96.5H79.7613V89.024H81.4273V89.976C81.7073 89.64 82.0573 89.3833 82.4773 89.206C82.8973 89.0287 83.3639 88.94 83.8773 88.94C84.4373 88.94 84.9319 89.0473 85.3613 89.262C85.7999 89.4673 86.1453 89.7753 86.3973 90.186C86.7053 89.794 87.1019 89.4907 87.5873 89.276C88.0726 89.052 88.6093 88.94 89.1973 88.94ZM98.6436 88.94C99.3716 88.94 100.02 89.0987 100.59 89.416C101.168 89.7333 101.621 90.1813 101.948 90.76C102.274 91.3387 102.438 92.006 102.438 92.762C102.438 93.518 102.274 94.19 101.948 94.778C101.621 95.3567 101.168 95.8047 100.59 96.122C100.02 96.4393 99.3716 96.598 98.6436 96.598C97.6356 96.598 96.8376 96.262 96.2496 95.59V99.216H94.4996V89.024H96.1656V90.004C96.4549 89.6493 96.8096 89.3833 97.2296 89.206C97.6589 89.0287 98.1302 88.94 98.6436 88.94ZM98.4476 95.1C99.0916 95.1 99.6189 94.8853 100.03 94.456C100.45 94.0267 100.66 93.462 100.66 92.762C100.66 92.062 100.45 91.4973 100.03 91.068C99.6189 90.6387 99.0916 90.424 98.4476 90.424C98.0276 90.424 97.6496 90.522 97.3136 90.718C96.9776 90.9047 96.7116 91.1753 96.5156 91.53C96.3196 91.8847 96.2216 92.2953 96.2216 92.762C96.2216 93.2287 96.3196 93.6393 96.5156 93.994C96.7116 94.3487 96.9776 94.624 97.3136 94.82C97.6496 95.0067 98.0276 95.1 98.4476 95.1ZM108.591 96.094C108.386 96.262 108.134 96.388 107.835 96.472C107.546 96.556 107.238 96.598 106.911 96.598C106.09 96.598 105.455 96.3833 105.007 95.954C104.559 95.5247 104.335 94.8993 104.335 94.078V90.48H103.103V89.08H104.335V87.372H106.085V89.08H108.087V90.48H106.085V94.036C106.085 94.4 106.174 94.68 106.351 94.876C106.529 95.0627 106.785 95.156 107.121 95.156C107.513 95.156 107.84 95.0533 108.101 94.848L108.591 96.094ZM116.813 92.804C116.813 92.9253 116.803 93.098 116.785 93.322H110.919C111.021 93.8727 111.287 94.3113 111.717 94.638C112.155 94.9553 112.697 95.114 113.341 95.114C114.162 95.114 114.839 94.8433 115.371 94.302L116.309 95.38C115.973 95.7813 115.548 96.0847 115.035 96.29C114.521 96.4953 113.943 96.598 113.299 96.598C112.477 96.598 111.754 96.4347 111.129 96.108C110.503 95.7813 110.018 95.3287 109.673 94.75C109.337 94.162 109.169 93.4993 109.169 92.762C109.169 92.034 109.332 91.3807 109.659 90.802C109.995 90.214 110.457 89.7567 111.045 89.43C111.633 89.1033 112.295 88.94 113.033 88.94C113.761 88.94 114.409 89.1033 114.979 89.43C115.557 89.7473 116.005 90.2 116.323 90.788C116.649 91.3667 116.813 92.0387 116.813 92.804ZM113.033 90.34C112.473 90.34 111.997 90.508 111.605 90.844C111.222 91.1707 110.989 91.6093 110.905 92.16H115.147C115.072 91.6187 114.843 91.18 114.461 90.844C114.078 90.508 113.602 90.34 113.033 90.34ZM125.816 86.112V96.5H124.136V95.534C123.846 95.8887 123.487 96.1547 123.058 96.332C122.638 96.5093 122.171 96.598 121.658 96.598C120.939 96.598 120.29 96.4393 119.712 96.122C119.142 95.8047 118.694 95.3567 118.368 94.778C118.041 94.19 117.878 93.518 117.878 92.762C117.878 92.006 118.041 91.3387 118.368 90.76C118.694 90.1813 119.142 89.7333 119.712 89.416C120.29 89.0987 120.939 88.94 121.658 88.94C122.152 88.94 122.605 89.024 123.016 89.192C123.426 89.36 123.776 89.612 124.066 89.948V86.112H125.816ZM121.868 95.1C122.288 95.1 122.666 95.0067 123.002 94.82C123.338 94.624 123.604 94.3487 123.8 93.994C123.996 93.6393 124.094 93.2287 124.094 92.762C124.094 92.2953 123.996 91.8847 123.8 91.53C123.604 91.1753 123.338 90.9047 123.002 90.718C122.666 90.522 122.288 90.424 121.868 90.424C121.448 90.424 121.07 90.522 120.734 90.718C120.398 90.9047 120.132 91.1753 119.936 91.53C119.74 91.8847 119.642 92.2953 119.642 92.762C119.642 93.2287 119.74 93.6393 119.936 93.994C120.132 94.3487 120.398 94.624 120.734 94.82C121.07 95.0067 121.448 95.1 121.868 95.1Z" fill="#556575"/>
<path d="M86.36 133.32H83.88V136.5H81.36V133.32H73.68V131.52L80.58 122.5H83.36L76.86 131.12H81.44V128.3H83.88V131.12H86.36V133.32ZM91.7756 127.92C93.749 127.92 95.209 128.307 96.1556 129.08C97.1023 129.84 97.5756 130.88 97.5756 132.2C97.5756 133.04 97.369 133.8 96.9556 134.48C96.5423 135.16 95.9223 135.7 95.0956 136.1C94.269 136.5 93.249 136.7 92.0356 136.7C91.0356 136.7 90.069 136.56 89.1356 136.28C88.2023 135.987 87.4156 135.587 86.7756 135.08L87.8756 133.06C88.3956 133.487 89.0156 133.827 89.7356 134.08C90.469 134.32 91.2223 134.44 91.9956 134.44C92.9156 134.44 93.6356 134.253 94.1556 133.88C94.689 133.493 94.9556 132.967 94.9556 132.3C94.9556 131.58 94.669 131.04 94.0956 130.68C93.5356 130.307 92.569 130.12 91.1956 130.12H87.8156L88.5356 122.5H96.7556V124.68H90.7356L90.4356 127.92H91.7756Z" fill="#324452"/>
<path d="M175 101C175 149.325 135.825 188.5 87.5 188.5C39.1751 188.5 0 149.325 0 101C0 52.6751 39.1751 13.5 87.5 13.5C135.825 13.5 175 52.6751 175 101ZM8.75 101C8.75 144.492 44.0076 179.75 87.5 179.75C130.992 179.75 166.25 144.492 166.25 101C166.25 57.5076 130.992 22.25 87.5 22.25C44.0076 22.25 8.75 57.5076 8.75 101Z" fill="#E5E9EC"/>
<path d="M76.6938 18.5804C76.3797 16.1847 74.1801 14.486 71.803 14.9195C57.0279 17.6136 43.1684 24.0715 31.5793 33.7012C18.8667 44.2645 9.40594 58.2126 4.29252 73.9304C-0.820905 89.6482 -1.37787 106.493 2.68612 122.514C6.75011 138.535 15.2688 153.078 27.2559 164.458C39.2431 175.838 54.2083 183.59 70.419 186.817C86.6296 190.043 103.423 188.612 118.854 182.69C134.285 176.767 147.723 166.595 157.612 153.351C166.627 141.277 172.356 127.101 174.279 112.206C174.589 109.81 172.778 107.701 170.37 107.512C167.961 107.323 165.867 109.125 165.544 111.519C163.759 124.766 158.626 137.367 150.601 148.116C141.7 160.035 129.606 169.19 115.718 174.521C101.83 179.851 86.7166 181.139 72.1271 178.235C57.5375 175.331 44.0688 168.354 33.2803 158.112C22.4919 147.87 14.8251 134.782 11.1675 120.363C7.50992 105.944 8.01119 90.7834 12.6133 76.6373C17.2153 62.4913 25.73 49.9381 37.1714 40.4311C47.489 31.8578 59.8061 26.078 72.9425 23.6072C75.3171 23.1606 77.0079 20.9761 76.6938 18.5804Z" fill="#FF8C8C"/>
<path d="M76.6938 18.5804C76.3797 16.1847 74.1801 14.486 71.803 14.9195C59.5499 17.1538 47.8974 21.982 37.6351 29.0991C26.1728 37.0485 16.7771 47.6231 10.2315 59.9411C3.68596 72.2592 0.180265 85.9636 0.00676836 99.9117C-0.166729 113.86 2.997 127.647 9.23413 140.124C15.4713 152.601 24.601 163.406 35.8621 171.638C47.1232 179.87 60.1892 185.291 73.9706 187.448C87.7519 189.605 101.849 188.435 115.087 184.037C126.939 180.1 137.794 173.677 146.935 165.217C148.708 163.575 148.669 160.796 146.942 159.107C145.214 157.418 142.452 157.46 140.669 159.091C132.51 166.559 122.856 172.236 112.328 175.734C100.414 179.692 87.7267 180.744 75.3235 178.803C62.9203 176.862 51.1609 171.983 41.0259 164.575C30.8909 157.166 22.6741 147.441 17.0607 136.212C11.4473 124.982 8.59994 112.574 8.75609 100.021C8.91224 87.4673 12.0674 75.1333 17.9584 64.047C23.8494 52.9608 32.3055 43.4436 42.6216 36.2892C51.7375 29.9671 62.0723 25.6519 72.9426 23.6072C75.3172 23.1606 77.0079 20.9761 76.6938 18.5804Z" fill="#6CD5B1"/>
<rect x="223" width="16" height="16" rx="8" fill="#82ECC8"/>
<path d="M248.016 13.12C247.168 13.12 246.4 12.936 245.712 12.568C245.032 12.192 244.496 11.676 244.104 11.02C243.72 10.364 243.528 9.624 243.528 8.8C243.528 7.976 243.724 7.236 244.116 6.58C244.508 5.924 245.044 5.412 245.724 5.044C246.412 4.668 247.18 4.48 248.028 4.48C248.716 4.48 249.344 4.6 249.912 4.84C250.48 5.08 250.96 5.428 251.352 5.884L250.344 6.832C249.736 6.176 248.988 5.848 248.1 5.848C247.524 5.848 247.008 5.976 246.552 6.232C246.096 6.48 245.74 6.828 245.484 7.276C245.228 7.724 245.1 8.232 245.1 8.8C245.1 9.368 245.228 9.876 245.484 10.324C245.74 10.772 246.096 11.124 246.552 11.38C247.008 11.628 247.524 11.752 248.1 11.752C248.988 11.752 249.736 11.42 250.344 10.756L251.352 11.716C250.96 12.172 250.476 12.52 249.9 12.76C249.332 13 248.704 13.12 248.016 13.12ZM255.348 13.084C254.7 13.084 254.116 12.944 253.596 12.664C253.076 12.384 252.668 11.996 252.372 11.5C252.084 10.996 251.94 10.428 251.94 9.796C251.94 9.164 252.084 8.6 252.372 8.104C252.668 7.608 253.076 7.22 253.596 6.94C254.116 6.66 254.7 6.52 255.348 6.52C256.004 6.52 256.592 6.66 257.112 6.94C257.632 7.22 258.036 7.608 258.324 8.104C258.62 8.6 258.768 9.164 258.768 9.796C258.768 10.428 258.62 10.996 258.324 11.5C258.036 11.996 257.632 12.384 257.112 12.664C256.592 12.944 256.004 13.084 255.348 13.084ZM255.348 11.8C255.9 11.8 256.356 11.616 256.716 11.248C257.076 10.88 257.256 10.396 257.256 9.796C257.256 9.196 257.076 8.712 256.716 8.344C256.356 7.976 255.9 7.792 255.348 7.792C254.796 7.792 254.34 7.976 253.98 8.344C253.628 8.712 253.452 9.196 253.452 9.796C253.452 10.396 253.628 10.88 253.98 11.248C254.34 11.616 254.796 11.8 255.348 11.8ZM261.631 7.528C262.063 6.856 262.823 6.52 263.911 6.52V7.948C263.783 7.924 263.667 7.912 263.563 7.912C262.979 7.912 262.523 8.084 262.195 8.428C261.867 8.764 261.703 9.252 261.703 9.892V13H260.203V6.592H261.631V7.528ZM266.611 7.528C267.043 6.856 267.803 6.52 268.891 6.52V7.948C268.763 7.924 268.647 7.912 268.543 7.912C267.959 7.912 267.503 8.084 267.175 8.428C266.847 8.764 266.683 9.252 266.683 9.892V13H265.183V6.592H266.611V7.528ZM276.129 9.832C276.129 9.936 276.121 10.084 276.105 10.276H271.077C271.165 10.748 271.393 11.124 271.761 11.404C272.137 11.676 272.601 11.812 273.153 11.812C273.857 11.812 274.437 11.58 274.893 11.116L275.697 12.04C275.409 12.384 275.045 12.644 274.605 12.82C274.165 12.996 273.669 13.084 273.117 13.084C272.413 13.084 271.793 12.944 271.257 12.664C270.721 12.384 270.305 11.996 270.009 11.5C269.721 10.996 269.577 10.428 269.577 9.796C269.577 9.172 269.717 8.612 269.997 8.116C270.285 7.612 270.681 7.22 271.185 6.94C271.689 6.66 272.257 6.52 272.889 6.52C273.513 6.52 274.069 6.66 274.557 6.94C275.053 7.212 275.437 7.6 275.709 8.104C275.989 8.6 276.129 9.176 276.129 9.832ZM272.889 7.72C272.409 7.72 272.001 7.864 271.665 8.152C271.337 8.432 271.137 8.808 271.065 9.28H274.701C274.637 8.816 274.441 8.44 274.113 8.152C273.785 7.864 273.377 7.72 272.889 7.72ZM280.51 13.084C279.846 13.084 279.25 12.944 278.722 12.664C278.194 12.384 277.782 11.996 277.486 11.5C277.19 10.996 277.042 10.428 277.042 9.796C277.042 9.164 277.19 8.6 277.486 8.104C277.782 7.608 278.19 7.22 278.71 6.94C279.238 6.66 279.838 6.52 280.51 6.52C281.142 6.52 281.694 6.648 282.166 6.904C282.646 7.16 283.006 7.528 283.246 8.008L282.094 8.68C281.91 8.384 281.678 8.164 281.398 8.02C281.126 7.868 280.826 7.792 280.498 7.792C279.938 7.792 279.474 7.976 279.106 8.344C278.738 8.704 278.554 9.188 278.554 9.796C278.554 10.404 278.734 10.892 279.094 11.26C279.462 11.62 279.93 11.8 280.498 11.8C280.826 11.8 281.126 11.728 281.398 11.584C281.678 11.432 281.91 11.208 282.094 10.912L283.246 11.584C282.998 12.064 282.634 12.436 282.154 12.7C281.682 12.956 281.134 13.084 280.51 13.084ZM288.477 12.652C288.301 12.796 288.085 12.904 287.829 12.976C287.581 13.048 287.317 13.084 287.037 13.084C286.333 13.084 285.789 12.9 285.405 12.532C285.021 12.164 284.829 11.628 284.829 10.924V7.84H283.773V6.64H284.829V5.176H286.329V6.64H288.045V7.84H286.329V10.888C286.329 11.2 286.405 11.44 286.557 11.608C286.709 11.768 286.929 11.848 287.217 11.848C287.553 11.848 287.833 11.76 288.057 11.584L288.477 12.652Z" fill="#556575"/>
<path d="M248.056 33.504C249.155 33.6107 249.992 33.952 250.568 34.528C251.144 35.0933 251.432 35.8187 251.432 36.704C251.432 37.344 251.272 37.9253 250.952 38.448C250.632 38.96 250.152 39.3707 249.512 39.68C248.883 39.9787 248.109 40.128 247.192 40.128C246.392 40.128 245.624 40.0107 244.888 39.776C244.152 39.5307 243.549 39.1947 243.08 38.768L243.816 37.504C244.2 37.8667 244.691 38.16 245.288 38.384C245.885 38.5973 246.52 38.704 247.192 38.704C248.024 38.704 248.669 38.528 249.128 38.176C249.597 37.824 249.832 37.3387 249.832 36.72C249.832 36.1013 249.603 35.6213 249.144 35.28C248.685 34.9387 247.992 34.768 247.064 34.768H246.168V33.648L248.984 30.192H243.592V28.8H250.984V29.888L248.056 33.504ZM257.5 40.128C256.615 40.128 255.826 39.904 255.132 39.456C254.45 38.9973 253.911 38.336 253.516 37.472C253.122 36.608 252.924 35.584 252.924 34.4C252.924 33.216 253.122 32.192 253.516 31.328C253.911 30.464 254.45 29.808 255.132 29.36C255.826 28.9013 256.615 28.672 257.5 28.672C258.375 28.672 259.154 28.9013 259.836 29.36C260.53 29.808 261.074 30.464 261.468 31.328C261.863 32.192 262.06 33.216 262.06 34.4C262.06 35.584 261.863 36.608 261.468 37.472C261.074 38.336 260.53 38.9973 259.836 39.456C259.154 39.904 258.375 40.128 257.5 40.128ZM257.5 38.704C258.396 38.704 259.111 38.336 259.644 37.6C260.188 36.864 260.46 35.7973 260.46 34.4C260.46 33.0027 260.188 31.936 259.644 31.2C259.111 30.464 258.396 30.096 257.5 30.096C256.594 30.096 255.868 30.464 255.324 31.2C254.791 31.936 254.524 33.0027 254.524 34.4C254.524 35.7973 254.791 36.864 255.324 37.6C255.868 38.336 256.594 38.704 257.5 38.704Z" fill="#1E2A36"/>
<rect x="223" y="78" width="16" height="16" rx="8" fill="#FF8C8C"/>
<path d="M244.128 82.6H245.688V91H244.128V82.6ZM251.452 84.52C252.26 84.52 252.908 84.756 253.396 85.228C253.884 85.7 254.128 86.4 254.128 87.328V91H252.628V87.52C252.628 86.96 252.496 86.54 252.232 86.26C251.968 85.972 251.592 85.828 251.104 85.828C250.552 85.828 250.116 85.996 249.796 86.332C249.476 86.66 249.316 87.136 249.316 87.76V91H247.816V84.592H249.244V85.42C249.492 85.124 249.804 84.9 250.18 84.748C250.556 84.596 250.98 84.52 251.452 84.52ZM259.029 91.084C258.365 91.084 257.769 90.944 257.241 90.664C256.713 90.384 256.301 89.996 256.005 89.5C255.709 88.996 255.561 88.428 255.561 87.796C255.561 87.164 255.709 86.6 256.005 86.104C256.301 85.608 256.709 85.22 257.229 84.94C257.757 84.66 258.357 84.52 259.029 84.52C259.661 84.52 260.213 84.648 260.685 84.904C261.165 85.16 261.525 85.528 261.765 86.008L260.613 86.68C260.429 86.384 260.197 86.164 259.917 86.02C259.645 85.868 259.345 85.792 259.017 85.792C258.457 85.792 257.993 85.976 257.625 86.344C257.257 86.704 257.073 87.188 257.073 87.796C257.073 88.404 257.253 88.892 257.613 89.26C257.981 89.62 258.449 89.8 259.017 89.8C259.345 89.8 259.645 89.728 259.917 89.584C260.197 89.432 260.429 89.208 260.613 88.912L261.765 89.584C261.517 90.064 261.153 90.436 260.673 90.7C260.201 90.956 259.653 91.084 259.029 91.084ZM265.848 91.084C265.2 91.084 264.616 90.944 264.096 90.664C263.576 90.384 263.168 89.996 262.872 89.5C262.584 88.996 262.44 88.428 262.44 87.796C262.44 87.164 262.584 86.6 262.872 86.104C263.168 85.608 263.576 85.22 264.096 84.94C264.616 84.66 265.2 84.52 265.848 84.52C266.504 84.52 267.092 84.66 267.612 84.94C268.132 85.22 268.536 85.608 268.824 86.104C269.12 86.6 269.268 87.164 269.268 87.796C269.268 88.428 269.12 88.996 268.824 89.5C268.536 89.996 268.132 90.384 267.612 90.664C267.092 90.944 266.504 91.084 265.848 91.084ZM265.848 89.8C266.4 89.8 266.856 89.616 267.216 89.248C267.576 88.88 267.756 88.396 267.756 87.796C267.756 87.196 267.576 86.712 267.216 86.344C266.856 85.976 266.4 85.792 265.848 85.792C265.296 85.792 264.84 85.976 264.48 86.344C264.128 86.712 263.952 87.196 263.952 87.796C263.952 88.396 264.128 88.88 264.48 89.248C264.84 89.616 265.296 89.8 265.848 89.8ZM272.131 85.528C272.563 84.856 273.323 84.52 274.411 84.52V85.948C274.283 85.924 274.167 85.912 274.063 85.912C273.479 85.912 273.023 86.084 272.695 86.428C272.367 86.764 272.203 87.252 272.203 87.892V91H270.703V84.592H272.131V85.528ZM277.111 85.528C277.543 84.856 278.303 84.52 279.391 84.52V85.948C279.263 85.924 279.147 85.912 279.043 85.912C278.459 85.912 278.003 86.084 277.675 86.428C277.347 86.764 277.183 87.252 277.183 87.892V91H275.683V84.592H277.111V85.528ZM286.629 87.832C286.629 87.936 286.621 88.084 286.605 88.276H281.577C281.665 88.748 281.893 89.124 282.261 89.404C282.637 89.676 283.101 89.812 283.653 89.812C284.357 89.812 284.937 89.58 285.393 89.116L286.197 90.04C285.909 90.384 285.545 90.644 285.105 90.82C284.665 90.996 284.169 91.084 283.617 91.084C282.913 91.084 282.293 90.944 281.757 90.664C281.221 90.384 280.805 89.996 280.509 89.5C280.221 88.996 280.077 88.428 280.077 87.796C280.077 87.172 280.217 86.612 280.497 86.116C280.785 85.612 281.181 85.22 281.685 84.94C282.189 84.66 282.757 84.52 283.389 84.52C284.013 84.52 284.569 84.66 285.057 84.94C285.553 85.212 285.937 85.6 286.209 86.104C286.489 86.6 286.629 87.176 286.629 87.832ZM283.389 85.72C282.909 85.72 282.501 85.864 282.165 86.152C281.837 86.432 281.637 86.808 281.565 87.28H285.201C285.137 86.816 284.941 86.44 284.613 86.152C284.285 85.864 283.877 85.72 283.389 85.72ZM291.01 91.084C290.346 91.084 289.75 90.944 289.222 90.664C288.694 90.384 288.282 89.996 287.986 89.5C287.69 88.996 287.542 88.428 287.542 87.796C287.542 87.164 287.69 86.6 287.986 86.104C288.282 85.608 288.69 85.22 289.21 84.94C289.738 84.66 290.338 84.52 291.01 84.52C291.642 84.52 292.194 84.648 292.666 84.904C293.146 85.16 293.506 85.528 293.746 86.008L292.594 86.68C292.41 86.384 292.178 86.164 291.898 86.02C291.626 85.868 291.326 85.792 290.998 85.792C290.438 85.792 289.974 85.976 289.606 86.344C289.238 86.704 289.054 87.188 289.054 87.796C289.054 88.404 289.234 88.892 289.594 89.26C289.962 89.62 290.43 89.8 290.998 89.8C291.326 89.8 291.626 89.728 291.898 89.584C292.178 89.432 292.41 89.208 292.594 88.912L293.746 89.584C293.498 90.064 293.134 90.436 292.654 90.7C292.182 90.956 291.634 91.084 291.01 91.084ZM298.977 90.652C298.801 90.796 298.585 90.904 298.329 90.976C298.081 91.048 297.817 91.084 297.537 91.084C296.833 91.084 296.289 90.9 295.905 90.532C295.521 90.164 295.329 89.628 295.329 88.924V85.84H294.273V84.64H295.329V83.176H296.829V84.64H298.545V85.84H296.829V88.888C296.829 89.2 296.905 89.44 297.057 89.608C297.209 89.768 297.429 89.848 297.717 89.848C298.053 89.848 298.333 89.76 298.557 89.584L298.977 90.652Z" fill="#556575"/>
<path d="M246.968 111.264C248.568 111.264 249.741 111.568 250.488 112.176C251.245 112.773 251.624 113.595 251.624 114.64C251.624 115.301 251.464 115.899 251.144 116.432C250.835 116.955 250.36 117.371 249.72 117.68C249.091 117.979 248.312 118.128 247.384 118.128C246.595 118.128 245.832 118.011 245.096 117.776C244.36 117.531 243.752 117.195 243.272 116.768L244.008 115.504C244.392 115.867 244.883 116.16 245.48 116.384C246.077 116.597 246.707 116.704 247.368 116.704C248.211 116.704 248.861 116.528 249.32 116.176C249.789 115.813 250.024 115.323 250.024 114.704C250.024 114.032 249.768 113.525 249.256 113.184C248.744 112.832 247.869 112.656 246.632 112.656H244.088L244.68 106.8H251V108.192H246.024L245.72 111.264H246.968Z" fill="#1E2A36"/>
<rect x="223" y="156" width="16" height="16" rx="8" fill="#E5E9EC"/>
<path d="M247.74 169.12C246.58 169.12 245.676 168.796 245.028 168.148C244.38 167.492 244.056 166.556 244.056 165.34V160.6H245.616V165.28C245.616 166.928 246.328 167.752 247.752 167.752C249.168 167.752 249.876 166.928 249.876 165.28V160.6H251.412V165.34C251.412 166.556 251.088 167.492 250.44 168.148C249.8 168.796 248.9 169.12 247.74 169.12ZM257.089 162.52C257.897 162.52 258.545 162.756 259.033 163.228C259.521 163.7 259.765 164.4 259.765 165.328V169H258.265V165.52C258.265 164.96 258.133 164.54 257.869 164.26C257.605 163.972 257.229 163.828 256.741 163.828C256.189 163.828 255.753 163.996 255.433 164.332C255.113 164.66 254.953 165.136 254.953 165.76V169H253.453V162.592H254.881V163.42C255.129 163.124 255.441 162.9 255.817 162.748C256.193 162.596 256.617 162.52 257.089 162.52ZM264.116 162.52C265.06 162.52 265.78 162.748 266.276 163.204C266.78 163.652 267.032 164.332 267.032 165.244V169H265.616V168.22C265.432 168.5 265.168 168.716 264.824 168.868C264.488 169.012 264.08 169.084 263.6 169.084C263.12 169.084 262.7 169.004 262.34 168.844C261.98 168.676 261.7 168.448 261.5 168.16C261.308 167.864 261.212 167.532 261.212 167.164C261.212 166.588 261.424 166.128 261.848 165.784C262.28 165.432 262.956 165.256 263.876 165.256H265.532V165.16C265.532 164.712 265.396 164.368 265.124 164.128C264.86 163.888 264.464 163.768 263.936 163.768C263.576 163.768 263.22 163.824 262.868 163.936C262.524 164.048 262.232 164.204 261.992 164.404L261.404 163.312C261.74 163.056 262.144 162.86 262.616 162.724C263.088 162.588 263.588 162.52 264.116 162.52ZM263.912 167.992C264.288 167.992 264.62 167.908 264.908 167.74C265.204 167.564 265.412 167.316 265.532 166.996V166.252H263.984C263.12 166.252 262.688 166.536 262.688 167.104C262.688 167.376 262.796 167.592 263.012 167.752C263.228 167.912 263.528 167.992 263.912 167.992ZM272.809 168.652C272.633 168.796 272.417 168.904 272.161 168.976C271.913 169.048 271.649 169.084 271.369 169.084C270.665 169.084 270.121 168.9 269.737 168.532C269.353 168.164 269.161 167.628 269.161 166.924V163.84H268.105V162.64H269.161V161.176H270.661V162.64H272.377V163.84H270.661V166.888C270.661 167.2 270.737 167.44 270.889 167.608C271.041 167.768 271.261 167.848 271.549 167.848C271.885 167.848 272.165 167.76 272.389 167.584L272.809 168.652ZM277.742 168.652C277.566 168.796 277.35 168.904 277.094 168.976C276.846 169.048 276.582 169.084 276.302 169.084C275.598 169.084 275.054 168.9 274.67 168.532C274.286 168.164 274.094 167.628 274.094 166.924V163.84H273.038V162.64H274.094V161.176H275.594V162.64H277.31V163.84H275.594V166.888C275.594 167.2 275.67 167.44 275.822 167.608C275.974 167.768 276.194 167.848 276.482 167.848C276.818 167.848 277.098 167.76 277.322 167.584L277.742 168.652ZM284.789 165.832C284.789 165.936 284.781 166.084 284.765 166.276H279.737C279.825 166.748 280.053 167.124 280.421 167.404C280.797 167.676 281.261 167.812 281.813 167.812C282.517 167.812 283.097 167.58 283.553 167.116L284.357 168.04C284.069 168.384 283.705 168.644 283.265 168.82C282.825 168.996 282.329 169.084 281.777 169.084C281.073 169.084 280.453 168.944 279.917 168.664C279.381 168.384 278.965 167.996 278.669 167.5C278.381 166.996 278.237 166.428 278.237 165.796C278.237 165.172 278.377 164.612 278.657 164.116C278.945 163.612 279.341 163.22 279.845 162.94C280.349 162.66 280.917 162.52 281.549 162.52C282.173 162.52 282.729 162.66 283.217 162.94C283.713 163.212 284.097 163.6 284.369 164.104C284.649 164.6 284.789 165.176 284.789 165.832ZM281.549 163.72C281.069 163.72 280.661 163.864 280.325 164.152C279.997 164.432 279.797 164.808 279.725 165.28H283.361C283.297 164.816 283.101 164.44 282.773 164.152C282.445 163.864 282.037 163.72 281.549 163.72ZM294.318 162.52C295.126 162.52 295.766 162.756 296.238 163.228C296.71 163.692 296.946 164.392 296.946 165.328V169H295.446V165.52C295.446 164.96 295.322 164.54 295.074 164.26C294.826 163.972 294.47 163.828 294.006 163.828C293.502 163.828 293.098 163.996 292.794 164.332C292.49 164.66 292.338 165.132 292.338 165.748V169H290.838V165.52C290.838 164.96 290.714 164.54 290.466 164.26C290.218 163.972 289.862 163.828 289.398 163.828C288.886 163.828 288.478 163.992 288.174 164.32C287.878 164.648 287.73 165.124 287.73 165.748V169H286.23V162.592H287.658V163.408C287.898 163.12 288.198 162.9 288.558 162.748C288.918 162.596 289.318 162.52 289.758 162.52C290.238 162.52 290.662 162.612 291.03 162.796C291.406 162.972 291.702 163.236 291.918 163.588C292.182 163.252 292.522 162.992 292.938 162.808C293.354 162.616 293.814 162.52 294.318 162.52ZM302.415 162.52C303.039 162.52 303.595 162.656 304.083 162.928C304.579 163.2 304.967 163.584 305.247 164.08C305.527 164.576 305.667 165.148 305.667 165.796C305.667 166.444 305.527 167.02 305.247 167.524C304.967 168.02 304.579 168.404 304.083 168.676C303.595 168.948 303.039 169.084 302.415 169.084C301.551 169.084 300.867 168.796 300.363 168.22V171.328H298.863V162.592H300.291V163.432C300.539 163.128 300.843 162.9 301.203 162.748C301.571 162.596 301.975 162.52 302.415 162.52ZM302.247 167.8C302.799 167.8 303.251 167.616 303.603 167.248C303.963 166.88 304.143 166.396 304.143 165.796C304.143 165.196 303.963 164.712 303.603 164.344C303.251 163.976 302.799 163.792 302.247 163.792C301.887 163.792 301.563 163.876 301.275 164.044C300.987 164.204 300.759 164.436 300.591 164.74C300.423 165.044 300.339 165.396 300.339 165.796C300.339 166.196 300.423 166.548 300.591 166.852C300.759 167.156 300.987 167.392 301.275 167.56C301.563 167.72 301.887 167.8 302.247 167.8ZM310.941 168.652C310.765 168.796 310.549 168.904 310.293 168.976C310.045 169.048 309.781 169.084 309.501 169.084C308.797 169.084 308.253 168.9 307.869 168.532C307.485 168.164 307.293 167.628 307.293 166.924V163.84H306.237V162.64H307.293V161.176H308.793V162.64H310.509V163.84H308.793V166.888C308.793 167.2 308.869 167.44 309.021 167.608C309.173 167.768 309.393 167.848 309.681 167.848C310.017 167.848 310.297 167.76 310.521 167.584L310.941 168.652ZM317.988 165.832C317.988 165.936 317.98 166.084 317.964 166.276H312.936C313.024 166.748 313.252 167.124 313.62 167.404C313.996 167.676 314.46 167.812 315.012 167.812C315.716 167.812 316.296 167.58 316.752 167.116L317.556 168.04C317.268 168.384 316.904 168.644 316.464 168.82C316.024 168.996 315.528 169.084 314.976 169.084C314.272 169.084 313.652 168.944 313.116 168.664C312.58 168.384 312.164 167.996 311.868 167.5C311.58 166.996 311.436 166.428 311.436 165.796C311.436 165.172 311.576 164.612 311.856 164.116C312.144 163.612 312.54 163.22 313.044 162.94C313.548 162.66 314.116 162.52 314.748 162.52C315.372 162.52 315.928 162.66 316.416 162.94C316.912 163.212 317.296 163.6 317.568 164.104C317.848 164.6 317.988 165.176 317.988 165.832ZM314.748 163.72C314.268 163.72 313.86 163.864 313.524 164.152C313.196 164.432 312.996 164.808 312.924 165.28H316.56C316.496 164.816 316.3 164.44 315.972 164.152C315.644 163.864 315.236 163.72 314.748 163.72ZM325.705 160.096V169H324.265V168.172C324.017 168.476 323.709 168.704 323.341 168.856C322.981 169.008 322.581 169.084 322.141 169.084C321.525 169.084 320.969 168.948 320.473 168.676C319.985 168.404 319.601 168.02 319.321 167.524C319.041 167.02 318.901 166.444 318.901 165.796C318.901 165.148 319.041 164.576 319.321 164.08C319.601 163.584 319.985 163.2 320.473 162.928C320.969 162.656 321.525 162.52 322.141 162.52C322.565 162.52 322.953 162.592 323.305 162.736C323.657 162.88 323.957 163.096 324.205 163.384V160.096H325.705ZM322.321 167.8C322.681 167.8 323.005 167.72 323.293 167.56C323.581 167.392 323.809 167.156 323.977 166.852C324.145 166.548 324.229 166.196 324.229 165.796C324.229 165.396 324.145 165.044 323.977 164.74C323.809 164.436 323.581 164.204 323.293 164.044C323.005 163.876 322.681 163.792 322.321 163.792C321.961 163.792 321.637 163.876 321.349 164.044C321.061 164.204 320.833 164.436 320.665 164.74C320.497 165.044 320.413 165.396 320.413 165.796C320.413 166.196 320.497 166.548 320.665 166.852C320.833 167.156 321.061 167.392 321.349 167.56C321.637 167.72 321.961 167.8 322.321 167.8Z" fill="#556575"/>
<path d="M247.24 184.8V196H245.656V186.192H243.128V184.8H247.24ZM254.266 196.128C253.381 196.128 252.591 195.904 251.898 195.456C251.215 194.997 250.677 194.336 250.282 193.472C249.887 192.608 249.69 191.584 249.69 190.4C249.69 189.216 249.887 188.192 250.282 187.328C250.677 186.464 251.215 185.808 251.898 185.36C252.591 184.901 253.381 184.672 254.266 184.672C255.141 184.672 255.919 184.901 256.602 185.36C257.295 185.808 257.839 186.464 258.234 187.328C258.629 188.192 258.826 189.216 258.826 190.4C258.826 191.584 258.629 192.608 258.234 193.472C257.839 194.336 257.295 194.997 256.602 195.456C255.919 195.904 255.141 196.128 254.266 196.128ZM254.266 194.704C255.162 194.704 255.877 194.336 256.41 193.6C256.954 192.864 257.226 191.797 257.226 190.4C257.226 189.003 256.954 187.936 256.41 187.2C255.877 186.464 255.162 186.096 254.266 186.096C253.359 186.096 252.634 186.464 252.09 187.2C251.557 187.936 251.29 189.003 251.29 190.4C251.29 191.797 251.557 192.864 252.09 193.6C252.634 194.336 253.359 194.704 254.266 194.704Z" fill="#1E2A36"/>
</svg>
