<svg width="51" height="16" viewBox="0 0 51 16" fill="none" xmlns="http://www.w3.org/2000/svg">
<path d="M49.9976 7.2929C50.3881 7.68342 50.3881 8.31658 49.9976 8.70711L43.6336 15.0711C43.2431 15.4616 42.61 15.4616 42.2194 15.0711C41.8289 14.6805 41.8289 14.0474 42.2194 13.6569L47.8763 8L42.2194 2.34315C41.8289 1.95262 41.8289 1.31946 42.2194 0.928934C42.61 0.53841 43.2431 0.53841 43.6336 0.928934L49.9976 7.2929ZM49.2905 9C29.07 9 24.1607 10.5022 20.7141 11.9244C18.9385 12.6571 17.372 13.4568 14.4365 14.0431C11.5247 14.6247 7.27395 15 -4.37521e-07 15L-8.70157e-08 13C7.22605 13 11.324 12.6253 14.0448 12.0819C16.7419 11.5432 18.0918 10.8429 19.9513 10.0756C23.7749 8.49781 29.0109 7 49.2905 7L49.2905 9Z" fill="white"/>
</svg>
