<svg width="43" height="54" viewBox="0 0 43 54" fill="none" xmlns="http://www.w3.org/2000/svg">
<path d="M0.844135 52.0271C0.303318 51.9151 -0.0443268 51.3859 0.0676422 50.8451L1.8923 42.032C2.00428 41.4912 2.53346 41.1436 3.07428 41.2555C3.61509 41.3675 3.96274 41.8967 3.85077 42.4375L2.22885 50.2714L10.0627 51.8933C10.6035 52.0053 10.9512 52.5344 10.8392 53.0753C10.7272 53.6161 10.198 53.9637 9.65723 53.8517L0.844135 52.0271ZM0.49781 50.2121C23.6704 34.9889 34.9764 20.1912 40.0798 0.793415L42.014 1.30229C36.753 21.2987 25.0629 36.4671 1.59594 51.8836L0.49781 50.2121Z" fill="white"/>
</svg>
