<svg width="28" height="46" viewBox="0 0 28 46" fill="none" xmlns="http://www.w3.org/2000/svg">
<path d="M7.29289 0.292992C7.68342 -0.0975304 8.31658 -0.0975304 8.70711 0.292992L15.0711 6.65695C15.4616 7.04748 15.4616 7.68064 15.0711 8.07117C14.6805 8.46169 14.0474 8.46169 13.6569 8.07117L8 2.41431L2.34315 8.07117C1.95262 8.46169 1.31946 8.46169 0.928932 8.07117C0.538408 7.68064 0.538408 7.04748 0.928932 6.65695L7.29289 0.292992ZM9 1.0001C9 11.0709 10.1851 16.9625 11.8764 20.6195C13.5351 24.2061 15.7104 25.711 17.9748 26.9326C20.2223 28.1451 22.8845 29.1916 24.8359 31.8362C26.8053 34.5052 28 38.67 28 46.0002L26 46.0002C26 38.8305 24.8197 35.1828 23.2266 33.0237C21.6155 30.8402 19.5277 30.0429 17.0252 28.6928C14.5396 27.3519 11.9649 25.5755 10.0611 21.459C8.18989 17.4129 7 11.1793 7 1.0001H9Z" fill="white"/>
</svg>
