<svg width="20" height="20" viewBox="0 0 20 20" fill="none" xmlns="http://www.w3.org/2000/svg">
<path d="M10 10.9999C10.5523 10.9999 11 10.5522 11 9.99988C11 9.44759 10.5523 8.99988 10 8.99988C9.44771 8.99988 9 9.44759 9 9.99988C9 10.5522 9.44771 10.9999 10 10.9999Z" stroke="#094277" stroke-linecap="round" stroke-linejoin="round"/>
<path d="M10 15.0001C12.7614 15.0001 15 12.7615 15 10.0001C15 7.2387 12.7614 5.00012 10 5.00012C7.23858 5.00012 5 7.2387 5 10.0001C5 12.7615 7.23858 15.0001 10 15.0001Z" stroke="#094277" stroke-linecap="round" stroke-linejoin="round"/>
<path d="M10 19C14.9706 19 19 14.9706 19 10C19 5.02944 14.9706 1 10 1C5.02944 1 1 5.02944 1 10C1 14.9706 5.02944 19 10 19Z" stroke="#094277" stroke-linecap="round" stroke-linejoin="round"/>
</svg>
