<svg width="16" height="11" viewBox="0 0 16 11" fill="none" xmlns="http://www.w3.org/2000/svg">
<path d="M1.25903 7.10214C1.94248 3.82689 4.79431 1.5 7.99995 1.5C11.2056 1.5 14.0574 3.82688 14.7409 7.10215C14.7973 7.37246 15.0622 7.54587 15.3325 7.48946C15.6028 7.43304 15.7762 7.16817 15.7198 6.89785C14.9425 3.17312 11.6934 0.5 7.99995 0.5C4.30654 0.5 1.05736 3.17311 0.280114 6.89786C0.223706 7.16818 0.397116 7.43305 0.667436 7.48946C0.937755 7.54587 1.20262 7.37246 1.25903 7.10214ZM7.98947 3.5C9.92247 3.5 11.4895 5.067 11.4895 7C11.4895 8.93299 9.92247 10.5 7.98947 10.5C6.05647 10.5 4.48947 8.93299 4.48947 7C4.48947 5.067 6.05647 3.5 7.98947 3.5Z" fill="#263643"/>
</svg>
